<svg width="3100.000000pt" height="580.000000pt" viewBox="0 0 3100.000000 580.000000" xmlns="http://www.w3.org/2000/svg">
  <g transform="translate(0.000000,580.000000) scale(0.100000,-0.100000)" fill="#000000" stroke="none">
    <path d="M0 2900 c0 -2900 0 -2900 15500 -2900 15500 0 15500 0 15500 2900 0
2900 0 2900 -15500 2900 -15500 0 -15500 0 -15500 -2900z m14671 2140 c38 -21
17 -97 -59 -215 -51 -79 -234 -265 -304 -309 -25 -16 -52 -41 -58 -55 -34 -72
-61 -163 -66 -223 -6 -62 -5 -68 19 -92 73 -73 201 -1 282 158 43 84 44 106 6
128 -65 36 -78 106 -25 130 24 11 29 9 51 -17 73 -84 -37 -355 -171 -419 -48
-23 -121 -21 -157 5 -62 44 -62 190 0 324 5 11 18 38 27 60 49 110 163 296
239 390 102 126 162 163 216 135z m4809 -9 c-16 -32 -13 -38 43 -69 116 -65
170 -191 132 -303 -16 -47 -82 -124 -116 -134 -28 -9 -24 -23 20 -70 150 -163
74 -396 -145 -445 -118 -27 -269 60 -298 170 -4 15 2 10 15 -15 45 -82 106
-118 204 -119 228 -2 331 229 186 413 -32 40 -32 40 -104 39 -82 -1 -137 20
-137 52 0 39 87 38 156 -1 47 -26 55 -25 107 21 118 104 99 305 -37 385 -23
14 -47 25 -53 25 -11 0 -99 -123 -125 -175 -8 -16 -31 -61 -51 -100 -20 -38
-64 -130 -97 -204 -124 -273 -216 -374 -377 -416 -289 -75 -447 210 -279 505
166 292 508 471 818 430 97 -13 100 -13 121 8 27 27 31 28 17 3z m789 5 c52
-63 -123 -353 -364 -604 -89 -93 -88 -91 -83 -176 6 -99 17 -116 75 -116 76 0
138 51 232 195 65 100 181 215 217 215 5 0 -13 -21 -38 -47 -121 -125 -183
-302 -128 -368 15 -18 120 -21 138 -3 6 6 14 9 18 6 10 -11 -34 -29 -85 -35
-81 -9 -141 44 -141 126 0 41 -13 39 -57 -10 -91 -101 -165 -123 -227 -69 -92
81 -66 278 71 545 115 224 316 408 372 341z m-6296 -29 c24 -14 50 -33 57 -43
8 -9 -8 -1 -35 17 -49 33 -53 34 -150 34 -221 0 -429 -155 -562 -420 -84 -165
-105 -372 -49 -473 56 -100 134 -137 277 -130 213 10 442 209 545 473 43 108
42 261 -1 330 -43 70 -82 90 -175 90 -148 -1 -278 -109 -336 -282 -45 -133
-17 -268 64 -316 43 -25 27 -35 -19 -12 -123 64 -158 216 -85 369 113 235 393
336 533 191 109 -114 89 -323 -51 -533 -257 -388 -679 -445 -817 -112 -19 46
-19 219 0 285 69 239 218 420 421 512 39 17 71 27 155 47 56 14 185 -2 228
-27z m3717 -22 c-122 -214 -124 -211 -29 33 6 15 17 22 34 22 26 0 26 0 -5
-55z m-1766 -27 c-5 -7 -38 -60 -75 -118 -180 -284 -287 -563 -248 -645 22
-45 72 -47 118 -4 13 12 22 16 19 9 -2 -7 -25 -25 -50 -39 -56 -31 -92 -23
-123 26 -20 32 -48 43 -60 23 -3 -5 -20 -19 -38 -31 -18 -12 -9 -1 19 24 44
39 52 53 63 104 13 61 42 145 68 201 21 43 -1 61 -72 62 -90 0 -185 -73 -246
-190 -35 -67 -35 -189 1 -219 28 -22 70 -27 102 -10 11 6 22 8 25 5 4 -3 -11
-13 -33 -22 -66 -28 -157 22 -170 93 -9 46 -23 42 -92 -26 -95 -95 -183 -96
-190 -2 -3 37 -6 42 -22 38 -16 -4 -13 3 14 36 18 23 53 74 78 112 94 144 115
153 48 20 -60 -121 -88 -209 -77 -239 16 -41 108 -10 154 51 15 21 34 44 40
51 7 7 34 50 59 96 94 169 228 255 344 220 69 -21 57 -30 128 96 61 107 198
289 220 290 2 0 0 -6 -4 -12z m-664 -275 c0 -18 -50 -64 -61 -57 -15 9 -10 40
12 68 22 28 49 22 49 -11z m841 -17 c-7 -13 -24 -29 -37 -35 -22 -10 -24 -8
-24 16 0 40 39 78 59 59 12 -13 13 -19 2 -40z m1739 -61 c-15 -18 -10 -85 15
-195 18 -82 14 -157 -10 -204 -21 -40 -19 -49 13 -43 27 5 27 5 -3 -19 -67
-55 -178 -66 -227 -23 -22 19 -22 20 -1 10 56 -28 127 0 157 60 38 77 46 339
10 339 -8 0 -14 -3 -14 -7 0 -5 -10 -19 -21 -33 -19 -22 -19 -21 2 15 34 60
82 126 87 120 3 -2 -1 -11 -8 -20z m-3048 -7 c-17 -17 -15 -54 8 -144 30 -116
25 -229 -11 -268 -32 -35 4 -46 47 -15 20 14 18 11 -6 -10 -37 -34 -125 -71
-166 -71 -30 0 -75 22 -95 47 -13 17 -13 17 7 1 39 -34 97 -24 137 22 51 60
64 123 59 298 -3 95 -17 94 -77 -3 -45 -71 -70 -101 -44 -52 32 60 141 219
146 213 4 -3 1 -12 -5 -18z m2120 -35 c11 -10 18 -30 18 -55 0 -38 28 -55 46
-27 3 6 27 24 52 40 91 58 162 26 162 -73 0 -43 -9 -65 -94 -222 -46 -86 -45
-120 1 -124 39 -4 124 74 193 176 41 61 69 89 35 35 -82 -130 -190 -233 -243
-233 -27 0 -72 42 -72 67 0 25 48 123 104 213 53 86 63 150 26 170 -57 31
-161 -58 -321 -275 -24 -33 -46 -62 -49 -65 -3 -3 -18 -22 -33 -42 -27 -37
-57 -50 -57 -25 0 6 27 48 60 92 126 168 192 345 132 353 -13 2 -31 -2 -40
-10 -15 -12 -16 -11 -3 5 17 22 59 22 83 0z m3605 -15 c23 -45 21 -143 -6
-204 -27 -59 -26 -62 7 -67 22 -3 21 -4 -10 -6 -30 -1 -40 -7 -57 -34 -11 -18
-30 -41 -43 -52 -58 -49 -59 -45 -5 12 58 62 68 85 44 100 -22 13 -44 54 -56
107 -29 118 76 238 126 144z m503 2 c22 -11 40 -25 40 -30 0 -14 34 -12 49 3
7 6 -23 -60 -67 -148 -157 -315 -158 -327 -28 -240 37 25 65 41 61 35 -4 -6
-49 -38 -100 -71 -79 -51 -96 -66 -110 -102 -85 -213 -216 -401 -310 -447
-127 -61 -194 35 -117 169 46 82 222 224 357 288 49 23 99 133 61 133 -8 0
-17 -4 -21 -9 -3 -5 -28 -17 -56 -26 -100 -33 -179 24 -179 129 0 31 -5 56
-10 56 -22 0 117 165 170 202 109 75 191 93 260 58z m-4538 -31 c26 -30 30
-32 49 -21 12 8 20 10 18 5 -2 -4 -30 -61 -63 -126 -75 -151 -83 -220 -27
-225 23 -2 44 4 65 19 23 17 27 18 16 4 -18 -22 -71 -45 -103 -45 -27 0 -51
23 -62 60 -4 14 -12 28 -16 31 -5 3 23 53 61 111 76 115 86 152 50 188 -14 14
-33 20 -67 20 -140 0 -314 -185 -313 -332 1 -71 15 -88 76 -89 45 -1 47 -1 21
-11 -65 -24 -140 18 -152 86 -9 45 -18 45 -55 2 -60 -68 -143 -86 -179 -40
-12 15 -21 33 -21 40 0 8 -7 14 -16 14 -20 0 -24 -8 77 145 117 177 142 195
70 54 -89 -177 -104 -250 -52 -257 60 -9 109 32 194 160 115 175 225 253 346
245 48 -4 58 -8 83 -38z m-4951 -55 c61 -18 119 -67 151 -128 19 -36 21 -64
26 -316 6 -328 4 -349 -46 -415 -72 -97 -74 -97 -537 -103 -400 -5 -400 -5
-428 -36 -16 -17 -59 -63 -96 -101 -36 -39 -84 -91 -107 -115 -75 -82 -81 -86
-104 -65 -18 16 -20 31 -20 160 0 143 0 143 -37 150 -54 10 -106 39 -141 80
-59 66 -60 76 -63 407 -3 339 0 355 75 421 64 56 68 57 626 66 283 4 545 9
581 9 36 1 90 -5 120 -14z m5203 -24 c-15 -22 -29 -40 -31 -40 -5 0 3 15 29
53 30 43 31 32 2 -13z m-70 -112 c-36 -62 -104 -147 -104 -131 0 5 9 18 20 28
11 10 34 40 51 66 27 43 53 71 33 37z m4556 -8 c-6 -11 -38 -49 -71 -83 -33
-34 -57 -55 -53 -47 5 8 18 23 30 32 12 10 39 40 60 68 40 53 52 63 34 30z
m-3270 -93 c0 -2 -15 -16 -32 -33 -33 -29 -33 -29 -4 4 28 30 36 37 36 29z
m-7951 -1043 c113 -52 181 -158 181 -279 0 -203 -171 -455 -308 -455 -135 0
-312 260 -312 457 0 212 246 367 439 277z m7361 -821 c1 -119 72 -262 155
-313 41 -26 47 -47 8 -26 -55 28 -134 136 -154 208 -11 41 -39 53 -39 17 0
-12 -16 -52 -36 -90 -32 -60 -53 -84 -122 -140 -7 -6 -16 -8 -20 -4 -4 4 7 16
23 28 95 68 155 199 155 334 0 40 4 53 15 53 12 0 15 -14 15 -67z m540 22 c0
-45 0 -45 85 -45 50 0 85 -4 85 -10 0 -6 -35 -10 -85 -10 -85 0 -85 0 -85 -65
0 -65 0 -65 83 -67 82 -2 82 -2 0 -5 -83 -4 -83 -4 -83 -73 0 -70 0 -70 100
-70 60 0 100 -4 100 -10 0 -6 -77 -10 -210 -10 -133 0 -210 4 -210 10 0 6 40
10 100 10 100 0 100 0 100 70 0 70 0 70 -77 72 -78 2 -78 2 0 5 77 4 77 4 77
68 0 65 0 65 -68 65 -67 0 -68 0 -86 -35 -11 -19 -23 -35 -28 -35 -12 0 -10 9
10 38 25 37 52 97 52 116 0 9 5 16 11 16 6 0 9 -8 6 -17 -22 -68 -25 -63 42
-63 61 0 61 0 61 45 0 25 5 45 10 45 6 0 10 -20 10 -45z m-5010 15 c14 -11 22
-20 19 -20 -9 0 -69 31 -69 36 0 10 27 2 50 -16z m1069 3 c46 -26 38 -36 -9
-12 -22 12 -40 23 -40 25 0 9 20 3 49 -13z m1081 2 c32 -16 38 -25 18 -25 -14
0 -68 39 -55 40 4 0 21 -7 37 -15z m320 -55 c0 -70 0 -70 -117 -68 -118 2
-118 2 -10 5 106 4 107 4 107 28 0 25 -1 25 -97 27 -98 2 -98 2 0 5 96 4 97 4
97 28 0 25 0 25 -105 25 -63 0 -105 4 -105 10 0 6 45 10 115 10 115 0 115 0
115 -70z m5186 29 c-7 -42 -7 -42 34 -35 56 9 50 -10 -6 -20 -42 -8 -48 -13
-62 -49 -24 -59 -75 -148 -89 -152 -6 -2 8 31 33 74 58 103 58 113 -6 113 -27
0 -50 5 -50 10 0 6 26 10 59 10 60 0 60 0 67 45 3 25 11 45 16 45 7 0 8 -16 4
-41z m-7336 -29 c0 -60 0 -60 -110 -60 -110 0 -110 0 -110 -62 0 -84 -38 -218
-61 -218 -4 0 2 21 14 48 18 40 22 70 25 200 4 152 4 152 123 152 119 0 119 0
119 -60z m2466 10 c-7 -50 -7 -50 39 -50 64 0 85 -23 85 -96 0 -123 -33 -184
-100 -184 -53 0 -51 18 2 22 54 4 69 32 76 135 6 90 -3 103 -68 103 -48 0 -48
0 -70 -67 -28 -88 -70 -183 -81 -183 -13 0 -12 3 15 57 31 62 56 132 56 161 0
20 -5 22 -50 22 -69 0 -63 18 7 22 58 3 58 3 66 56 11 68 32 70 23 2z m1084
14 c0 -37 0 -37 45 -32 25 3 45 2 45 -3 0 -9 -27 -17 -74 -21 -28 -3 -31 -7
-47 -73 -22 -90 -69 -215 -80 -215 -13 0 -12 4 25 104 19 50 37 110 41 134 7
42 7 42 -44 42 -28 0 -51 5 -51 10 0 6 25 10 55 10 55 0 55 0 61 40 8 50 24
52 24 4z m1623 -4 c-6 -40 -6 -40 46 -40 66 0 66 -15 0 -23 -61 -8 -55 -1 -63
-59 -7 -48 -7 -48 48 -48 31 0 56 -4 56 -10 0 -5 -25 -10 -55 -10 -55 0 -55 0
-55 -49 0 -62 30 -91 94 -91 102 0 150 67 107 150 -12 23 -16 40 -10 38 18 -6
49 -69 49 -100 0 -65 -88 -117 -177 -103 -57 8 -83 41 -83 106 0 45 -2 49 -27
55 -70 15 -79 24 -23 21 55 -2 55 -2 58 49 3 52 3 52 -48 59 -67 9 -64 23 5
17 54 -4 54 -4 61 37 8 53 24 54 17 1z m720 33 c-73 -4 -73 -4 -73 -33 0 -30
1 -30 55 -30 55 0 55 0 55 -50 0 -50 0 -50 -55 -50 -54 0 -55 0 -55 -30 0 -30
0 -30 75 -30 43 0 75 -4 75 -10 0 -6 -43 -10 -110 -10 -118 0 -128 -5 -88 -47
12 -13 19 -25 17 -28 -3 -3 -19 13 -35 35 -29 40 -29 40 -116 40 -52 0 -88 4
-88 10 0 6 30 10 70 10 70 0 70 0 70 30 0 29 -1 30 -50 30 -50 0 -50 0 -50 50
0 50 0 50 50 50 49 0 50 1 50 30 0 29 0 29 -67 33 -38 2 24 3 137 3 113 0 172
-2 133 -3z m480 -20 c-6 -2 -22 -13 -35 -25 -12 -11 -49 -41 -80 -66 -76 -59
-77 -82 -6 -137 84 -66 142 -121 132 -127 -5 -4 -32 15 -60 40 -27 26 -73 67
-102 91 -74 63 -74 62 52 164 22 18 51 44 65 60 18 20 27 24 35 16 8 -8 8 -13
-1 -16z m-5263 7 c0 -5 -9 -10 -20 -10 -19 0 -20 -7 -20 -179 0 -99 -4 -182
-8 -185 -19 -12 -112 -18 -112 -8 0 6 24 12 53 14 52 3 52 3 55 181 2 177 2
177 -123 177 -77 0 -125 4 -125 10 0 6 57 10 150 10 93 0 150 -4 150 -10z
m189 -27 c-5 -14 -12 -75 -16 -134 -6 -100 -5 -109 12 -109 12 0 15 -5 10 -17
-3 -10 -9 -30 -12 -45 -7 -37 -19 -35 -27 3 -17 87 6 341 30 332 9 -3 10 -12
3 -30z m5400 -5 c-4 -24 -11 -89 -15 -145 -6 -94 -5 -103 11 -103 11 0 15 -5
11 -16 -3 -9 -6 -27 -6 -40 0 -14 -6 -24 -14 -24 -29 0 -29 279 0 354 12 32
21 15 13 -26z m251 -4 c0 -47 0 -47 40 -40 23 4 40 2 40 -3 0 -6 -17 -11 -37
-13 -38 -3 -38 -3 -41 -53 -5 -83 3 -107 48 -133 22 -12 40 -27 40 -33 0 -6
-13 -1 -29 10 -34 24 -51 27 -51 7 0 -7 -9 -25 -21 -40 -38 -49 -149 -27 -149
29 0 35 44 65 96 65 44 0 44 0 44 70 0 70 0 70 -65 70 -37 0 -65 4 -65 10 0 6
28 10 65 10 65 0 65 0 65 45 0 25 5 45 10 45 6 0 10 -21 10 -46z m-6514 5 c84
-26 132 -147 89 -228 -29 -57 -132 -118 -157 -93 -6 6 2 12 24 16 77 14 128
74 128 150 0 79 -55 146 -118 146 -32 0 -32 1 -48 -95 -19 -109 -91 -208 -135
-185 -84 46 -72 194 22 261 62 44 116 52 195 28z m7337 -91 c11 -152 29 -198
79 -198 24 0 32 7 47 41 10 22 22 36 25 30 8 -12 -8 -47 -37 -78 -68 -75 -136
46 -137 245 0 87 17 58 23 -40z m-6173 72 c0 -6 -37 -10 -90 -10 -53 0 -90 4
-90 10 0 6 37 10 90 10 53 0 90 -4 90 -10z m1094 -74 c20 -38 34 -71 32 -74
-10 -9 -25 10 -37 46 -6 20 -20 49 -30 64 -11 14 -19 32 -19 39 0 21 16 -1 54
-75z m5377 19 c32 -70 47 -149 32 -158 -6 -4 -15 23 -22 61 -7 38 -23 87 -36
109 -20 36 -23 53 -8 53 2 0 18 -29 34 -65z m-496 -3 c-7 -7 -95 39 -95 50 0
5 23 -3 50 -18 28 -15 48 -29 45 -32z m-10675 -12 c330 -103 562 -392 587
-730 5 -72 4 -76 -22 -102 -28 -28 -28 -28 -804 -28 -594 1 -780 3 -792 13
-78 60 -24 327 105 516 209 306 582 440 926 331z m4080 -50 c0 -80 0 -80 -64
-80 -59 0 -65 -2 -69 -22 -2 -13 -5 23 -6 80 -1 102 -1 102 69 102 70 0 70 0
70 -80z m856 33 c-1 -2 -19 6 -39 16 -20 10 -34 21 -31 24 4 3 21 -4 39 -16
19 -12 32 -23 31 -24z m-2161 -3 c4 -6 -10 -2 -29 7 -20 10 -36 21 -36 26 0 9
56 -19 65 -33z m1056 14 c17 -8 28 -18 25 -21 -3 -3 -20 4 -38 16 -39 24 -30
28 13 5z m2427 -5 c28 -10 62 -58 62 -89 0 -34 -34 -79 -78 -102 -53 -28 -127
-44 -137 -28 -3 5 -5 10 -3 10 46 1 127 25 154 45 30 23 34 31 34 72 0 64 -19
83 -86 83 -29 0 -84 -11 -123 -24 -39 -13 -71 -20 -71 -16 0 13 14 19 92 40
85 22 114 24 156 9z m622 -6 c0 -5 -36 -8 -80 -8 -44 0 -80 3 -80 8 0 4 36 7
80 7 44 0 80 -3 80 -7z m3680 -27 c0 -72 10 -94 56 -121 24 -14 44 -30 44 -35
0 -5 -15 -1 -32 10 -42 25 -58 25 -58 0 0 -57 -99 -82 -145 -36 -46 46 -5 96
79 96 49 0 49 0 43 60 -3 33 -1 60 4 60 5 0 9 -15 9 -34z m-7610 -26 c0 -33 4
-50 13 -51 10 0 10 -2 0 -6 -9 -3 -13 -26 -13 -64 0 -60 0 -60 78 -57 77 3 77
3 83 38 6 35 6 35 8 5 2 -46 -14 -55 -94 -55 -42 0 -76 5 -83 12 -15 15 -17
228 -2 228 6 0 10 -22 10 -50z m2340 0 c0 -16 -4 -30 -10 -30 -5 0 -10 11 -10
25 0 25 0 25 -134 25 -135 0 -135 0 -139 -27 -4 -26 -4 -26 -6 5 -1 32 -1 32
149 32 150 0 150 0 150 -30z m-2216 -5 c-10 -8 -23 -14 -29 -14 -5 0 -1 6 9
14 11 8 24 15 30 15 5 0 1 -7 -10 -15z m-58 -30 c-11 -8 -25 -15 -30 -15 -6 1
0 7 14 15 32 19 40 18 16 0z m2218 -7 c-17 -32 -56 -78 -64 -78 -5 0 2 11 15
25 44 43 34 55 -44 55 -55 0 -70 -3 -73 -15 -2 -13 -6 -12 -20 5 -18 20 -18
20 88 20 81 0 104 -3 98 -12z m-2437 -5 c-2 -5 -17 -34 -32 -66 -24 -51 -45
-79 -45 -62 0 13 66 135 73 135 5 0 6 -3 4 -7z m1065 -40 c-11 -16 -22 -38
-26 -50 -6 -20 -36 -53 -36 -40 0 16 74 139 78 129 2 -6 -5 -24 -16 -39z m658
14 c0 -50 14 -57 112 -57 101 0 117 -14 27 -24 -59 -7 -118 4 -146 27 -15 11
-17 87 -3 87 6 0 10 -15 10 -33z m418 6 c-30 -74 -50 -115 -54 -111 -6 7 49
138 58 138 4 0 3 -12 -4 -27z m1789 -65 c10 -8 42 -13 90 -12 79 1 97 -10 33
-21 -84 -14 -160 18 -160 69 0 35 15 42 18 8 2 -17 10 -36 19 -44z m-1585 2
c9 0 18 -5 20 -11 2 -6 28 -19 58 -29 31 -11 45 -19 32 -20 -12 0 -42 9 -67
21 -44 21 -44 21 -100 0 -31 -12 -66 -21 -78 -20 -12 0 2 7 32 15 82 22 87 30
49 73 -21 24 -21 24 8 -1 16 -16 37 -28 46 -28z m3630 3 c3 -48 3 -48 93 -48
86 0 90 1 93 23 4 27 22 29 22 2 0 -30 -31 -40 -122 -40 -97 0 -108 7 -108 67
0 58 18 55 22 -4z m268 7 c27 -52 12 -52 -18 0 -12 22 -18 40 -13 40 6 0 20
-18 31 -40z m-355 -19 c-18 -36 -29 -42 -15 -8 6 12 13 31 17 42 4 11 8 14 10
8 2 -6 -3 -25 -12 -42z m-3579 -871 c49 0 84 -4 84 -10 0 -6 -67 -10 -180 -10
-180 0 -180 0 -180 -83 0 -83 -12 -173 -31 -234 -17 -54 -27 -37 -12 20 8 28
17 112 20 185 6 132 6 132 94 132 85 0 89 1 90 23 0 22 0 22 16 0 14 -21 24
-23 99 -23z m2075 -33 c-17 -35 -31 -69 -31 -75 0 -22 50 -12 77 14 37 37 36
26 -3 -31 -28 -41 -34 -46 -34 -26 0 21 -3 23 -35 18 -30 -5 -35 -3 -35 14 0
10 4 19 8 19 4 0 23 32 41 71 18 38 35 68 38 65 3 -3 -9 -34 -26 -69z m202 53
c-5 -18 0 -20 55 -20 34 0 63 -4 66 -9 6 -9 -40 -84 -55 -89 -25 -10 -5 -45
41 -74 28 -17 48 -33 46 -36 -7 -6 -86 40 -86 50 0 18 -52 6 -99 -24 -28 -17
-54 -28 -57 -25 -3 3 17 17 45 32 55 27 70 47 52 68 -8 11 -5 13 18 9 22 -3
33 2 50 23 35 46 28 55 -39 55 -62 0 -77 -15 -50 -48 7 -9 7 -9 -2 -2 -18 15
-39 12 -60 -7 -11 -9 -18 -11 -18 -5 0 7 4 12 8 12 4 0 23 25 42 55 36 56 52
69 43 35z m1523 -31 c-7 -42 -7 -42 34 -35 27 4 39 3 35 -4 -3 -5 -24 -13 -46
-16 -38 -6 -41 -10 -78 -88 -41 -86 -66 -124 -75 -116 -3 3 15 39 39 80 59 99
59 110 -5 110 -27 0 -50 5 -50 10 0 6 26 10 59 10 60 0 60 0 67 45 3 25 11 45
16 45 7 0 8 -16 4 -41z m-3354 -11 c2 -5 24 -4 51 1 26 4 47 5 47 1 0 -4 -18
-10 -40 -14 -32 -5 -40 -11 -40 -27 0 -53 36 -72 94 -49 16 6 26 6 26 0 0 -5
-18 -15 -40 -21 -46 -14 -47 -16 -21 -70 23 -47 12 -59 -42 -41 -32 10 -32 10
1 11 37 1 38 6 16 49 -15 32 -15 32 -125 32 -60 0 -109 4 -109 8 0 4 29 6 65
4 122 -8 148 5 123 61 -13 26 -15 27 -100 27 -56 0 -88 4 -88 11 0 7 18 8 55
4 80 -10 109 -1 101 33 -6 25 -5 26 8 8 9 -10 17 -23 18 -28z m411 -8 c-6 -53
14 -71 36 -32 6 9 11 12 11 5 0 -6 -5 -15 -10 -18 -19 -11 -40 -77 -40 -121 0
-32 -4 -44 -15 -44 -19 0 -20 74 -4 185 13 83 32 105 22 25z m1831 -20 c-6
-80 -3 -81 63 -49 64 31 112 34 151 10 64 -41 78 -125 31 -185 -26 -33 -94
-68 -122 -64 -17 3 -13 7 18 17 100 32 145 128 91 196 -34 42 -119 43 -189 2
-56 -33 -61 -48 -55 -163 3 -65 1 -84 -9 -84 -10 0 -13 20 -13 80 0 95 -13
103 -56 34 -16 -25 -30 -40 -32 -35 -2 6 19 42 47 81 36 49 51 79 51 101 0 32
0 32 -50 27 -27 -3 -50 -2 -50 2 0 4 23 10 50 14 50 7 50 7 50 46 0 29 4 40
15 40 12 0 14 -13 9 -70z m1749 38 c76 -16 44 -27 -35 -12 -40 8 -76 14 -80
14 -5 0 -8 5 -8 11 0 11 18 9 123 -13z m-3421 2 c78 -36 100 -194 37 -274 -23
-30 -90 -70 -131 -80 -47 -11 -32 13 15 25 88 22 127 76 127 178 0 114 -47
164 -120 128 -40 -20 -38 -12 3 13 37 23 39 23 69 10z m2388 2 c0 -4 -10 -16
-22 -26 -13 -10 -31 -26 -41 -34 -16 -15 -17 -14 -11 1 3 9 10 17 15 17 5 0 9
7 9 16 0 14 -11 16 -85 12 -66 -3 -85 -1 -85 9 0 10 26 13 110 13 61 0 110 -3
110 -8z m-1730 -10 c0 -4 -28 -13 -62 -19 -177 -34 -200 -269 -29 -298 47 -8
55 -25 13 -25 -38 0 -117 52 -136 89 -29 56 -13 132 38 180 55 51 12 60 -151
31 -31 -5 -43 -4 -43 5 0 8 29 15 88 20 48 4 123 11 167 15 44 4 88 8 98 8 9
1 17 -1 17 -6z m-1830 -52 c0 -18 7 -20 70 -20 63 0 70 2 70 20 0 11 5 20 10
20 6 0 10 -9 10 -20 0 -17 7 -20 40 -20 22 0 40 -4 40 -10 0 -5 -18 -10 -40
-10 -40 0 -40 0 -40 -40 0 -40 0 -40 -90 -40 -90 0 -90 0 -90 40 0 39 -1 40
-35 40 -19 0 -35 5 -35 10 0 6 16 10 35 10 28 0 35 4 35 20 0 11 5 20 10 20 6
0 10 -9 10 -20z m4150 -6 c22 -15 40 -30 40 -35 0 -5 -16 3 -36 16 -20 14 -41
25 -45 25 -5 0 -9 5 -9 10 0 15 6 13 50 -16z m286 -21 c-23 -115 -22 -117 41
-83 49 26 114 35 157 20 95 -31 86 -151 -14 -188 -39 -14 -118 -24 -140 -17
-40 13 -18 25 44 25 108 0 156 31 156 99 0 53 -26 71 -103 71 -63 0 -128 -26
-149 -60 -22 -35 -37 -25 -27 18 5 20 9 54 9 74 0 43 8 68 22 68 5 0 7 -12 4
-27z m-979 -4 c-33 -19 -20 -39 26 -39 133 -2 191 -135 85 -199 -77 -48 -189
-29 -196 32 -2 15 1 27 7 27 6 0 11 -11 11 -25 0 -30 26 -45 79 -45 45 0 48 7
26 50 -14 27 -21 30 -63 31 -42 0 -44 2 -21 10 36 13 76 -4 97 -41 36 -62 96
-21 90 62 -7 102 -170 114 -270 20 -15 -14 -31 -22 -35 -19 -3 4 -4 8 -2 10
18 13 120 97 144 119 16 15 32 25 35 22 2 -3 -3 -10 -13 -15z m626 -91 c6 -64
8 -68 68 -101 17 -10 29 -20 26 -24 -4 -3 -18 2 -31 11 -32 20 -56 21 -56 1 0
-58 -101 -85 -145 -41 -44 44 18 115 88 100 27 -6 27 -6 27 55 0 80 16 79 23
-1z m-4373 22 c0 -6 -78 -10 -215 -10 -137 0 -215 4 -215 10 0 6 78 10 215 10
137 0 215 -4 215 -10z m2512 -22 c-27 -27 -13 -37 41 -32 35 3 45 2 32 -4 -28
-13 -125 -24 -125 -15 0 8 51 63 59 63 3 0 0 -5 -7 -12z m243 -38 c8 -13 -5
-13 -25 0 -13 8 -13 10 2 10 9 0 20 -4 23 -10z m-2275 -19 c0 -5 -16 -23 -35
-40 -56 -49 -49 -62 43 -76 23 -4 40 -10 37 -15 -3 -4 -41 1 -86 13 -69 17
-89 18 -128 9 -67 -16 -134 -25 -101 -13 14 5 42 12 63 16 26 4 37 11 37 23 0
23 -59 79 -90 85 -14 2 39 5 118 6 78 0 142 -3 142 -8z m260 -20 c0 -66 46
-88 157 -76 74 8 89 -10 17 -21 -61 -9 -133 2 -164 25 -26 19 -43 101 -21 101
6 0 11 -13 11 -29z m1861 -50 c-19 -12 -140 -35 -147 -28 -4 3 11 9 32 12 22
4 53 11 69 15 44 12 64 12 46 1z m138 -7 c50 -17 101 -42 101 -49 0 -3 -17 2
-37 11 -21 9 -60 25 -88 35 -60 22 -39 25 24 3z" />
    <path d="M14573 4986 c-61 -55 -151 -190 -247 -371 -51 -95 -29 -99 73 -12 90
75 201 210 243 294 63 129 27 175 -69 89z" />
    <path d="M14450 4511 c0 -43 26 -71 64 -71 17 0 18 5 12 46 -8 59 -11 64 -47
64 -27 0 -29 -2 -29 -39z" />
    <path d="M19240 5005 c-8 -2 -48 -9 -89 -15 -313 -51 -600 -330 -640 -623 -27
-193 53 -289 226 -274 102 10 185 61 255 157 26 35 148 270 148 285 0 25 174
334 200 355 18 14 60 79 60 92 0 21 -99 35 -160 23z" />
    <path d="M19298 4564 c-27 -27 22 -54 98 -54 81 0 42 44 -50 56 -22 3 -44 2
-48 -2z" />
    <path d="M20145 4979 c-115 -106 -305 -451 -305 -556 0 -16 28 -17 43 0 95
100 248 291 294 367 125 204 106 315 -32 189z" />
    <path d="M20431 4551 c-54 -54 -27 -246 34 -246 44 0 75 192 39 243 -19 27
-48 28 -73 3z" />
    <path d="M20903 4530 c-81 -19 -173 -100 -229 -203 -39 -72 -41 -169 -4 -199
61 -50 210 14 261 111 13 25 49 88 81 139 66 106 68 113 32 141 -28 22 -79 26
-141 11z" />
    <path d="M20695 3929 c-91 -58 -214 -178 -244 -238 -40 -77 -20 -151 40 -151
65 0 170 128 263 319 69 142 64 148 -59 70z" />
    <path d="M10440 4391 c-247 -9 -242 -1 -238 -416 3 -266 5 -304 21 -333 23
-41 66 -68 124 -77 76 -11 93 -39 93 -151 0 -76 3 -94 15 -94 13 0 60 46 197
195 47 50 47 50 280 57 128 3 316 6 418 7 292 2 280 -15 280 406 0 338 -1 342
-63 389 -34 26 -34 26 -503 24 -258 -1 -539 -4 -624 -7z m535 -102 c142 -39
174 -177 63 -272 -46 -40 -60 -63 -72 -118 -10 -47 -61 -48 -72 -2 -9 34 16
75 82 140 59 57 72 107 39 157 -55 83 -205 41 -205 -56 0 -60 -62 -89 -75 -35
-29 112 112 221 240 186z m-10 -529 c17 -54 -37 -84 -69 -38 -14 20 -14 24 1
40 22 24 60 23 68 -2z" />
    <path d="M9780 3129 c-104 -42 -161 -155 -138 -279 40 -226 181 -380 286 -313
102 66 175 213 176 358 1 121 -39 191 -133 231 -38 16 -153 18 -191 3z" />
    <path d="M12990 2345 c0 -45 0 -45 100 -45 100 0 100 0 100 45 0 45 0 45 -100
45 -100 0 -100 0 -100 -45z" />
    <path d="M18920 2370 c0 -29 2 -30 45 -30 43 0 45 1 45 30 0 29 -2 30 -45 30
-43 0 -45 -1 -45 -30z" />
    <path d="M18820 2290 c0 -40 0 -40 40 -40 40 0 40 0 40 40 0 40 0 40 -40 40
-40 0 -40 0 -40 -40z" />
    <path d="M18920 2290 c0 -40 0 -40 45 -40 45 0 45 0 45 40 0 40 0 40 -45 40
-45 0 -45 0 -45 -40z" />
    <path d="M19030 2290 c0 -40 0 -40 45 -40 45 0 45 0 45 40 0 40 0 40 -45 40
-45 0 -45 0 -45 -40z" />
    <path d="M18920 2210 c0 -29 2 -30 45 -30 43 0 45 1 45 30 0 29 -2 30 -45 30
-43 0 -45 -1 -45 -30z" />
    <path d="M20037 2127 c-13 -9 -18 -23 -15 -42 3 -29 5 -30 58 -30 55 0 55 0
55 40 0 40 0 40 -40 43 -22 2 -48 -3 -58 -11z" />
    <path d="M13474 2331 c-95 -58 -114 -241 -25 -241 39 0 108 155 111 248 0 18
-51 14 -86 -7z" />
    <path d="M9760 2230 c-345 -43 -606 -322 -646 -687 -7 -63 -7 -63 756 -63 762
0 762 0 755 68 -39 386 -325 663 -710 685 -49 3 -119 2 -155 -3z" />
    <path d="M14060 2220 c0 -60 0 -60 55 -60 55 0 55 0 55 60 0 60 0 60 -55 60
-55 0 -55 0 -55 -60z" />
    <path d="M20548 2116 c-42 -32 -14 -76 48 -76 48 0 67 17 62 57 -3 26 -7 28
-48 30 -26 2 -52 -3 -62 -11z" />
    <path d="M15060 1050 c0 -30 0 -30 70 -30 70 0 70 0 70 30 0 30 0 30 -70 30
-70 0 -70 0 -70 -30z" />
    <path d="M19018 919 c-21 -12 -24 -49 -6 -67 21 -21 96 -15 108 9 23 41 9 64
-40 66 -25 2 -53 -2 -62 -8z" />
    <path d="M15050 926 c0 -21 49 -56 78 -56 31 0 92 37 92 56 0 11 -18 14 -85
14 -67 0 -85 -3 -85 -14z" />
  </g>
  <g transform="translate(0.000000,580.000000) scale(0.100000,-0.100000)" fill="#38b6ff" stroke="none">
    <path d="M14607 5055 c-53 -18 -87 -48 -162 -140 -76 -94 -190 -280 -239 -390
-9 -22 -22 -49 -27 -60 -63 -137 -63 -299 0 -344 36 -26 127 -28 177 -5 140
66 250 355 169 444 -37 41 -105 10 -105 -49 0 -33 39 -86 70 -96 27 -9 25 -22
-15 -101 -78 -154 -195 -225 -262 -158 -23 24 -25 30 -19 82 15 124 64 230
124 268 119 74 321 307 365 422 39 99 6 155 -76 127z m55 -65 c-8 -81 -145
-271 -272 -377 -41 -34 -76 -61 -77 -59 -3 3 23 55 74 145 124 223 286 394
275 291z m-149 -493 c11 -47 5 -55 -28 -33 -34 22 -37 79 -3 74 17 -2 25 -13
31 -41z" />
    <path d="M19459 5044 c-26 -26 -26 -26 -117 -13 -277 39 -590 -101 -771 -346
-251 -339 -107 -701 242 -610 161 42 253 143 377 416 33 74 77 166 97 204 20
39 43 84 51 100 8 17 38 63 65 103 50 72 50 72 91 48 147 -86 155 -287 16
-386 -29 -20 -29 -20 -65 0 -42 23 -111 36 -149 26 -21 -5 -26 -13 -26 -36 0
-43 44 -63 138 -63 73 0 73 0 104 -39 83 -105 87 -219 11 -307 -110 -129 -325
-106 -383 40 -17 43 -15 40 -33 33 -35 -13 33 -128 104 -176 139 -93 348 -33
416 120 43 98 19 223 -59 308 -36 39 -37 43 -19 49 33 10 100 87 116 134 41
122 -14 256 -132 323 -53 30 -54 31 -38 54 29 45 3 58 -36 18z m-70 -60 c3 -3
-45 -73 -59 -84 -26 -21 -200 -330 -200 -355 0 -15 -122 -250 -148 -285 -67
-92 -150 -145 -244 -156 -158 -18 -241 81 -216 259 39 286 329 566 639 617 41
6 81 13 89 15 18 4 133 -5 139 -11z m21 -449 c25 -14 25 -14 -11 -15 -45 0
-101 19 -93 32 8 12 69 2 104 -17z" />
    <path d="M20175 5046 c-122 -53 -311 -333 -383 -567 -97 -316 65 -489 262
-280 29 31 46 32 46 4 0 -31 32 -81 64 -98 83 -45 233 17 297 122 16 25 28 33
49 33 16 0 40 4 54 10 26 9 26 9 26 -46 0 -122 111 -177 233 -115 43 22 43 23
17 -32 -14 -30 -32 -49 -55 -60 -135 -64 -310 -205 -358 -288 -84 -146 -3
-257 138 -189 94 46 225 234 310 447 14 36 31 51 108 101 150 96 293 243 252
259 -12 4 -25 -4 -43 -28 -63 -81 -243 -231 -259 -215 -6 5 24 70 122 267 58
117 80 170 73 177 -8 8 -17 4 -30 -11 -14 -16 -21 -18 -25 -9 -9 22 -80 52
-122 52 -89 0 -228 -79 -295 -168 -69 -92 -90 -112 -123 -118 -33 -6 -33 -6
-12 41 28 63 31 176 6 223 -35 64 -114 37 -142 -49 -25 -75 1 -186 54 -225 17
-13 -70 -113 -122 -139 -38 -19 -111 -20 -126 -1 -52 63 17 245 137 360 32 30
39 43 31 53 -26 31 -157 -84 -240 -212 -90 -136 -156 -195 -222 -195 -45 0
-58 20 -65 105 -5 74 -6 74 83 167 209 217 351 434 370 562 11 73 -31 97 -110
62z m75 -57 c0 -85 -176 -344 -378 -558 -70 -74 57 231 163 390 104 157 215
243 215 168z m244 -451 c21 -29 20 -106 0 -169 -21 -63 -29 -67 -54 -27 -38
63 -38 160 1 199 25 25 34 24 53 -3z m541 -31 c27 -23 27 -23 -32 -117 -32
-52 -69 -116 -82 -141 -30 -57 -112 -117 -173 -125 -128 -18 -126 140 4 290
87 100 223 145 283 93z m-255 -561 c-47 -123 -173 -322 -232 -365 -48 -35 -64
-38 -90 -14 -44 40 -10 120 95 227 54 56 215 176 234 176 1 0 -2 -11 -7 -24z" />
    <path d="M13735 5044 c-83 -20 -116 -30 -155 -47 -261 -118 -435 -386 -435
-672 0 -196 70 -298 244 -354 333 -108 819 419 715 776 -76 262 -468 203 -610
-93 -74 -155 -45 -308 75 -381 41 -26 81 -30 81 -9 0 8 -15 23 -34 34 -109 64
-108 279 4 425 102 134 258 191 360 132 67 -40 95 -104 94 -214 -2 -289 -297
-624 -563 -639 -326 -19 -399 311 -153 693 116 181 295 300 468 312 88 6 159
-17 190 -61 18 -27 45 -6 28 22 -29 47 -100 75 -196 78 -51 2 -102 1 -113 -2z" />
    <path d="M17651 5028 c-35 -88 -81 -210 -81 -214 0 -43 129 131 168 228 2 4
-15 8 -37 8 -34 0 -43 -4 -50 -22z" />
    <path d="M15910 4977 c-38 -30 -162 -199 -213 -290 -15 -26 -35 -60 -44 -75
-9 -15 -17 -28 -18 -29 0 -1 -23 4 -49 12 -124 38 -264 -48 -360 -221 -25 -46
-52 -89 -59 -96 -6 -7 -25 -30 -40 -51 -30 -40 -73 -67 -107 -67 -49 0 -34 65
60 252 44 87 65 138 57 141 -15 5 -88 -84 -160 -194 -56 -85 -130 -169 -166
-189 -18 -9 -19 -8 -5 19 36 73 36 154 -3 304 -16 65 -16 69 1 98 16 27 16 33
4 45 -12 13 -24 0 -85 -93 -103 -157 -123 -203 -92 -203 4 0 33 41 64 90 32
50 59 89 61 87 10 -10 5 -227 -7 -265 -30 -103 -121 -156 -167 -97 -22 27 -42
33 -42 11 0 -22 37 -62 70 -76 69 -28 188 14 273 96 47 46 47 46 47 6 0 -103
127 -97 224 9 53 58 52 58 60 16 7 -40 47 -80 98 -98 49 -17 96 -2 168 52 39
30 55 38 59 28 10 -32 60 -69 92 -69 33 0 119 43 119 60 0 6 5 10 10 10 6 0
10 -6 10 -14 0 -7 9 -25 21 -40 38 -48 138 -29 197 39 29 32 29 32 40 -11 29
-106 168 -112 277 -12 53 48 53 48 60 21 10 -42 34 -63 72 -63 85 0 149 58
260 236 115 186 191 252 186 164 -2 -45 -80 -197 -146 -285 -93 -125 -92 -121
-55 -134 17 -6 32 -10 33 -9 8 12 61 84 65 88 3 3 25 32 49 65 152 205 256
299 303 274 32 -17 22 -68 -28 -149 -104 -168 -123 -232 -79 -275 46 -47 130
-20 203 63 43 49 122 165 122 179 0 31 -31 9 -70 -49 -54 -80 -153 -178 -180
-178 -45 0 -38 27 55 200 76 144 58 250 -44 250 -45 0 -126 -38 -145 -69 -14
-22 -26 -10 -26 27 0 48 -24 72 -71 72 -56 0 -85 -32 -231 -260 -84 -130 -147
-184 -194 -166 -29 11 -8 82 70 238 72 144 83 192 30 128 -27 -31 -27 -31 -54
2 -27 32 -30 33 -106 33 -130 0 -226 -68 -340 -241 -83 -127 -144 -178 -189
-160 -34 13 -16 70 76 253 108 210 42 168 -114 -74 -89 -138 -149 -192 -187
-168 -76 47 28 339 241 672 57 89 74 124 66 132 -8 6 -17 5 -27 -2z m-308
-431 c10 -7 14 -17 9 -22 -14 -15 -59 -144 -72 -207 -11 -50 -19 -64 -58 -99
-117 -102 -196 -86 -196 41 1 74 22 124 82 199 66 82 185 126 235 88z m858
-36 c31 -31 25 -53 -44 -158 -104 -159 -175 -222 -249 -222 -49 0 -66 20 -67
78 -1 167 269 393 360 302z" />
    <path d="M15201 4704 c-24 -30 -28 -82 -7 -90 21 -8 65 25 73 54 13 54 -32 79
-66 36z" />
    <path d="M16051 4706 c-21 -22 -32 -78 -18 -92 19 -20 87 35 87 71 0 46 -35
57 -69 21z" />
    <path d="M17812 4610 c-67 -90 -160 -259 -146 -264 10 -4 32 22 73 85 58 91
58 91 65 2 11 -139 -16 -242 -73 -282 -39 -28 -76 -26 -107 4 -43 43 -57 31
-25 -21 36 -59 134 -69 229 -23 37 19 133 104 167 150 52 69 55 77 40 89 -11
9 -19 4 -40 -30 -32 -50 -126 -150 -142 -150 -8 0 -7 9 3 29 24 48 28 138 9
221 -27 123 -29 154 -11 182 30 46 -9 53 -42 8z" />
  </g>
  <g transform="translate(0.000000,580.000000) scale(0.100000,-0.100000)" fill="#d8d8d8" stroke="none">
    <path d="M12827 2426 c-6 -15 -1 -21 51 -49 52 -29 73 -3 25 31 -41 29 -70 35
-76 18z" />
    <path d="M13906 2433 c-12 -12 -6 -34 12 -40 9 -3 29 -15 44 -25 17 -11 29
-15 33 -8 4 6 59 10 136 10 129 0 129 0 127 -167 -3 -168 -3 -168 -59 -171
-52 -3 -56 -5 -51 -24 5 -19 10 -20 64 -14 33 3 64 8 69 12 5 3 9 86 9 185 0
172 1 179 20 179 13 0 20 7 20 20 0 19 -7 20 -160 20 -110 0 -160 -3 -160 -11
0 -6 -14 -3 -32 8 -44 25 -65 33 -72 26z" />
    <path d="M14990 2425 c-17 -21 63 -73 85 -55 19 16 12 26 -35 50 -32 17 -40
17 -50 5z" />
    <path d="M17320 2387 c0 -137 -60 -265 -154 -332 -44 -31 -48 -55 -9 -55 15 0
16 1 74 49 38 32 98 134 109 186 7 30 7 30 18 -11 33 -116 165 -252 206 -212
12 12 7 18 -30 42 -93 59 -163 195 -164 319 0 65 -1 67 -25 67 -24 0 -25 -3
-25 -53z" />
    <path d="M17756 2432 c-3 -3 -6 -12 -6 -20 0 -20 -29 -82 -57 -120 -13 -17
-21 -37 -18 -42 13 -21 42 -9 61 25 18 34 21 35 76 35 58 0 58 0 58 -55 0 -55
0 -55 -75 -55 -60 0 -75 -3 -75 -15 0 -12 15 -15 75 -15 75 0 75 0 75 -60 0
-60 0 -60 -100 -60 -93 0 -100 -1 -100 -20 0 -19 7 -20 220 -20 213 0 220 1
220 20 0 19 -7 20 -100 20 -100 0 -100 0 -100 60 0 60 0 60 80 60 64 0 80 3
80 15 0 12 -16 15 -80 15 -80 0 -80 0 -80 55 0 55 0 55 85 55 78 0 85 2 85 20
0 18 -7 20 -85 20 -85 0 -85 0 -85 45 0 38 -3 45 -20 45 -17 0 -20 -7 -20 -45
0 -45 0 -45 -49 -45 -50 0 -50 0 -35 35 7 19 14 36 14 39 0 7 -39 14 -44 8z" />
    <path d="M15120 2410 c0 -19 7 -20 105 -20 87 0 105 -3 105 -15 0 -12 -17 -15
-95 -15 -78 0 -95 -3 -95 -15 0 -12 17 -15 95 -15 78 0 95 -3 95 -15 0 -12
-18 -15 -105 -15 -87 0 -105 -3 -105 -15 0 -13 21 -15 125 -15 125 0 125 0
125 80 0 80 0 80 -125 80 -118 0 -125 -1 -125 -20z" />
    <path d="M19543 2398 c-16 -18 -49 -49 -73 -68 -66 -53 -110 -97 -110 -111 0
-6 25 -35 57 -63 31 -28 81 -74 112 -103 53 -49 57 -51 74 -35 18 16 17 19
-30 62 -27 25 -73 63 -101 85 -65 51 -65 62 6 117 31 25 68 55 81 67 13 12 27
21 31 21 17 0 17 29 1 44 -16 15 -20 14 -48 -16z" />
    <path d="M20516 2385 c-7 -45 -7 -45 -67 -45 -52 0 -59 -2 -59 -20 0 -17 7
-20 50 -20 28 0 50 -2 50 -5 0 -10 -48 -100 -74 -137 -25 -38 -25 -38 -4 -49
24 -13 21 -16 75 86 18 33 37 72 42 86 7 22 17 28 55 33 38 6 46 11 46 28 0
18 -4 20 -39 14 -39 -6 -39 -6 -31 29 8 37 5 45 -21 45 -12 0 -18 -12 -23 -45z" />
    <path d="M12959 2267 c-4 -140 -6 -156 -30 -205 -25 -50 -25 -53 -8 -63 34
-18 79 106 79 219 0 62 0 62 110 62 110 0 110 0 110 70 0 70 0 70 -129 70
-129 0 -129 0 -132 -153z m221 78 c0 -35 0 -35 -90 -35 -90 0 -90 0 -90 35 0
35 0 35 90 35 90 0 90 0 90 -35z" />
    <path d="M15643 2368 c-8 -53 -8 -53 -66 -56 -52 -3 -57 -5 -57 -26 0 -22 3
-23 50 -18 64 6 64 6 14 -118 -10 -25 -29 -62 -41 -82 -13 -21 -19 -38 -14
-38 5 0 16 -3 25 -6 19 -7 52 57 91 174 27 82 27 82 65 82 53 0 64 -17 58 -94
-8 -96 -24 -121 -76 -120 -38 1 -42 -2 -42 -23 0 -21 4 -23 50 -23 79 0 110
54 110 194 0 83 -18 106 -85 106 -49 0 -47 -4 -30 83 2 12 -3 17 -20 17 -21 0
-25 -7 -32 -52z" />
    <path d="M16726 2380 c-6 -40 -6 -40 -61 -40 -48 0 -55 -2 -55 -20 0 -17 7
-20 50 -20 50 0 50 0 43 -32 -3 -18 -21 -73 -40 -123 -42 -111 -43 -119 -17
-123 24 -3 60 79 93 213 16 66 19 70 47 73 59 5 74 12 74 33 0 18 -4 20 -47
13 -46 -7 -46 -7 -40 30 5 33 4 36 -17 36 -20 0 -25 -7 -30 -40z" />
    <path d="M18356 2380 c-7 -44 -32 -52 -90 -30 -23 9 -26 7 -26 -14 0 -21 6
-25 51 -31 50 -7 50 -7 47 -49 -3 -40 -4 -41 -38 -38 -19 2 -43 5 -52 8 -13 4
-18 0 -18 -15 0 -14 9 -21 33 -26 67 -14 67 -13 67 -64 0 -65 26 -98 84 -106
147 -22 237 73 177 185 -12 24 -26 36 -45 38 -31 4 -32 -1 -7 -36 43 -61 34
-114 -24 -137 -79 -34 -145 -4 -145 66 0 39 0 39 55 39 30 0 55 4 55 9 0 5 3
16 6 24 5 13 -4 14 -55 10 -60 -6 -60 -6 -54 33 7 48 1 44 62 51 41 5 51 9 51
24 0 16 -8 19 -51 19 -51 0 -51 0 -44 40 6 35 4 40 -13 40 -15 0 -21 -9 -26
-40z" />
    <path d="M18760 2405 c0 -12 14 -15 65 -15 58 0 65 -2 65 -20 0 -17 -7 -20
-50 -20 -50 0 -50 0 -50 -60 0 -60 0 -60 50 -60 43 0 50 -3 50 -20 0 -18 -7
-20 -70 -20 -63 0 -70 -2 -70 -20 0 -19 7 -20 90 -20 50 0 90 -3 90 -7 2 -24
68 -85 83 -76 15 8 13 13 -14 46 -30 37 -30 37 80 37 104 0 111 1 111 20 0 18
-7 20 -75 20 -68 0 -75 2 -75 20 0 18 7 20 55 20 55 0 55 0 55 60 0 60 0 60
-55 60 -48 0 -55 2 -55 20 0 18 7 20 70 20 56 0 70 3 70 15 0 13 -30 15 -210
15 -180 0 -210 -2 -210 -15z m240 -35 c0 -16 -7 -20 -35 -20 -28 0 -35 4 -35
20 0 16 7 20 35 20 28 0 35 -4 35 -20z m-110 -80 c0 -27 -3 -30 -30 -30 -27 0
-30 3 -30 30 0 27 3 30 30 30 27 0 30 -3 30 -30z m110 0 c0 -28 -3 -30 -35
-30 -32 0 -35 2 -35 30 0 28 3 30 35 30 32 0 35 -2 35 -30z m110 0 c0 -28 -3
-30 -35 -30 -32 0 -35 2 -35 30 0 28 3 30 35 30 32 0 35 -2 35 -30z m-110 -80
c0 -16 -7 -20 -35 -20 -28 0 -35 4 -35 20 0 16 7 20 35 20 28 0 35 -4 35 -20z" />
    <path d="M14472 2327 c-22 -155 -14 -307 17 -307 14 0 56 107 56 144 0 22 -24
14 -34 -11 -16 -39 -5 161 10 206 9 27 9 35 -2 42 -28 18 -35 7 -47 -74z" />
    <path d="M19886 2393 c-14 -37 -28 -227 -21 -298 6 -71 8 -75 31 -75 19 0 24
5 24 24 0 13 7 43 15 67 15 43 14 69 -3 69 -5 0 -14 -15 -20 -32 -10 -33 -10
-33 -11 12 0 45 13 169 25 223 7 31 -29 41 -40 10z" />
    <path d="M20130 2365 c0 -45 0 -45 -65 -45 -58 0 -65 -2 -65 -20 0 -18 7 -20
65 -20 65 0 65 0 65 -60 0 -60 0 -60 -44 -60 -59 0 -96 -29 -96 -75 0 -45 29
-65 96 -65 54 0 94 29 94 68 0 10 9 8 34 -12 29 -22 36 -23 46 -11 16 19 4 34
-45 61 -38 20 -49 50 -43 119 3 38 5 40 41 43 30 3 37 7 37 24 0 18 -4 20 -40
14 -40 -6 -40 -6 -40 39 0 38 -3 45 -20 45 -17 0 -20 -7 -20 -45z m-5 -270 c0
-29 -2 -30 -45 -30 -36 0 -45 4 -48 19 -5 26 26 48 63 44 26 -3 30 -7 30 -33z" />
    <path d="M13513 2376 c-93 -30 -153 -105 -153 -193 0 -92 67 -155 124 -118 31
21 79 117 90 180 15 91 17 95 38 95 35 0 86 -47 99 -89 25 -83 -19 -160 -105
-183 -46 -12 -60 -33 -30 -45 23 -9 89 14 124 43 44 37 60 75 60 139 0 94 -48
154 -140 174 -60 13 -54 13 -107 -3z m34 -50 c-3 -8 -11 -41 -18 -75 -12 -62
-59 -151 -79 -151 -49 0 -62 111 -21 168 38 54 134 101 118 58z" />
    <path d="M20950 2308 c1 -174 40 -278 104 -278 58 0 111 79 85 127 -13 24 -13
24 -36 -27 -26 -58 -58 -66 -80 -19 -17 35 -36 162 -31 215 3 40 1 44 -19 44
-21 0 -23 -4 -23 -62z" />
    <path d="M14620 2340 c0 -19 7 -20 100 -20 93 0 100 1 100 20 0 19 -7 20 -100
20 -93 0 -100 -1 -100 -20z" />
    <path d="M15833 2354 c-9 -4 -5 -18 15 -47 16 -23 36 -63 46 -89 18 -50 22
-53 45 -39 17 11 8 40 -37 121 -30 53 -44 64 -69 54z" />
    <path d="M20676 2343 c-4 -9 -3 -20 1 -24 21 -19 105 -59 113 -54 22 14 7 34
-49 64 -52 27 -60 29 -65 14z" />
    <path d="M21223 2353 c-9 -3 -4 -20 17 -56 16 -29 34 -82 41 -119 12 -65 20
-76 46 -60 17 10 -2 102 -37 179 -27 59 -38 68 -67 56z" />
    <path d="M12802 2290 c-10 -16 -8 -20 11 -26 12 -4 34 -15 49 -26 26 -18 27
-18 37 0 16 30 -79 81 -97 52z" />
    <path d="M14040 2200 c0 -91 3 -110 15 -110 8 0 15 9 15 20 0 18 7 20 65 20
65 0 65 0 65 90 0 90 0 90 -80 90 -80 0 -80 0 -80 -110z m120 20 c0 -50 0 -50
-45 -50 -45 0 -45 0 -45 50 0 50 0 50 45 50 45 0 45 0 45 -50z" />
    <path d="M14967 2303 c-12 -11 -7 -33 7 -33 7 0 26 -10 40 -21 24 -19 29 -20
42 -7 13 13 10 18 -25 41 -42 28 -53 32 -64 20z" />
    <path d="M13882 2287 c-8 -10 1 -19 38 -40 47 -26 49 -27 59 -9 8 16 3 22 -35
40 -53 26 -49 25 -62 9z" />
    <path d="M16255 2273 c-57 -12 -155 -44 -155 -51 1 -32 19 -34 95 -8 135 45
195 31 195 -47 0 -48 -46 -84 -125 -97 -66 -11 -70 -13 -61 -36 17 -43 192 21
220 81 52 108 -34 188 -169 158z" />
    <path d="M16820 2252 c0 -16 10 -18 90 -18 80 0 90 2 90 18 0 16 -10 18 -90
18 -80 0 -90 -2 -90 -18z" />
    <path d="M20646 2210 c7 -60 7 -60 -44 -60 -57 0 -87 -20 -98 -62 -20 -88 161
-111 184 -23 7 26 7 26 45 1 36 -25 37 -25 47 -6 9 17 4 24 -37 50 -51 33 -60
50 -62 118 -1 35 -4 42 -21 42 -20 0 -21 -4 -14 -60z m1 -106 c11 -29 -11 -49
-52 -49 -48 0 -70 27 -40 49 27 21 84 21 92 0z" />
    <path d="M13030 2142 c0 -78 4 -122 12 -130 17 -17 172 -16 186 1 19 24 20 77
1 88 -15 8 -18 4 -21 -28 -3 -38 -3 -38 -70 -41 -68 -3 -68 -3 -68 45 0 48 0
48 53 72 85 39 101 52 84 68 -11 12 -22 8 -73 -22 -59 -36 -59 -36 -62 15 -3
42 -6 50 -23 50 -18 0 -19 -8 -19 -118z" />
    <path d="M15090 2200 c0 -29 4 -40 15 -40 9 0 15 9 15 25 0 25 0 25 125 25
125 0 125 0 125 -25 0 -18 5 -25 20 -25 17 0 20 7 20 40 0 40 0 40 -160 40
-160 0 -160 0 -160 -40z" />
    <path d="M12883 2163 c-4 -10 -22 -45 -40 -77 -29 -51 -32 -62 -20 -73 17 -18
25 -10 70 80 24 46 31 69 24 76 -16 16 -27 13 -34 -6z" />
    <path d="M13967 2158 c-77 -129 -78 -130 -66 -144 17 -21 24 -17 45 24 10 20
26 48 35 62 25 40 29 58 14 70 -11 9 -17 6 -28 -12z" />
    <path d="M15031 2157 c-5 -12 -20 -47 -34 -78 -24 -54 -22 -79 4 -79 8 0 68
140 69 161 0 20 -32 16 -39 -4z" />
    <path d="M15130 2166 c0 -8 3 -16 8 -18 4 -1 22 -22 40 -46 33 -42 33 -42 5
-53 -15 -6 -45 -13 -65 -16 -32 -5 -36 -8 -28 -23 11 -20 56 -14 126 15 29 12
37 12 65 -2 58 -29 98 -33 110 -12 8 16 6 19 -13 19 -25 1 -111 38 -91 39 15
1 73 78 73 98 0 10 -25 13 -115 13 -93 0 -115 -3 -115 -14z m171 -33 c-5 -10
-19 -26 -31 -36 -22 -18 -23 -18 -51 9 -41 39 -37 44 31 44 55 0 60 -2 51 -17z" />
    <path d="M14600 2121 c0 -27 6 -53 13 -58 51 -42 227 -41 227 1 0 20 -4 21
-85 17 -98 -4 -115 5 -115 55 0 27 -4 34 -20 34 -17 0 -20 -7 -20 -49z" />
    <path d="M16797 2143 c-16 -15 -6 -73 14 -92 43 -40 199 -40 199 -1 0 17 -7
19 -73 17 -87 -2 -112 11 -103 55 5 27 -18 41 -37 21z" />
    <path d="M19110 2130 c-20 -13 26 -100 52 -100 23 0 23 12 -2 60 -23 46 -31
52 -50 40z" />
    <path d="M18777 2080 c-25 -50 -25 -60 0 -60 16 0 57 85 48 100 -12 19 -23 10
-48 -40z" />
    <path d="M18850 2077 c0 -72 7 -77 118 -77 108 0 132 9 132 49 0 40 -37 51
-42 12 -3 -26 -4 -26 -83 -26 -80 0 -80 0 -83 48 -3 39 -6 47 -23 47 -16 0
-19 -7 -19 -53z" />
    <path d="M15092 1242 c-7 -5 -10 -16 -6 -25 5 -15 -4 -17 -85 -17 -91 0 -91 0
-91 -99 0 -98 -19 -233 -39 -269 -7 -14 -5 -21 9 -30 17 -10 20 -7 34 31 23
63 36 151 36 244 0 83 0 83 180 83 173 0 180 1 180 20 0 18 -7 20 -85 20 -81
0 -86 1 -97 25 -12 27 -16 29 -36 17z" />
    <path d="M17270 1174 c-18 -41 -37 -74 -41 -74 -11 0 -19 -29 -12 -46 4 -12
14 -14 39 -9 44 8 43 -2 -5 -49 -41 -40 -47 -83 -11 -71 14 4 126 25 138 25 1
0 2 10 2 22 0 20 1 20 13 5 11 -16 17 -15 71 18 57 34 86 43 86 27 0 -5 22
-21 49 -35 43 -24 50 -25 61 -12 7 9 11 17 9 18 -2 2 -25 16 -51 30 -60 35
-64 42 -38 69 69 73 62 108 -20 108 -56 0 -60 1 -51 19 9 15 7 20 -9 24 -15 4
-25 -5 -44 -37 -39 -66 -64 -88 -85 -76 -15 8 -22 5 -35 -14 -14 -23 -52 -43
-62 -34 -2 3 12 35 31 73 41 79 40 72 17 84 -15 8 -22 -1 -52 -65z m298 -36
c-27 -41 -47 -46 -68 -18 -28 36 -25 40 31 40 51 0 51 0 37 -22z m-89 -47 c24
-34 24 -34 -64 -79 -33 -17 -77 -32 -97 -34 -39 -4 -39 0 -1 39 6 7 21 28 33
48 23 37 35 43 43 23 3 -9 12 -6 28 10 30 28 33 28 58 -7z" />
    <path d="M15628 1222 c-21 -4 -21 -7 -8 -32 14 -26 -11 -33 -87 -24 -60 6 -63
5 -63 -15 0 -20 5 -21 88 -21 85 0 87 -1 99 -27 17 -37 14 -38 -93 -38 -83 0
-94 -2 -94 -17 0 -16 12 -18 109 -18 110 0 110 0 124 -29 15 -30 15 -30 -16
-33 -49 -5 -42 -24 13 -35 68 -14 80 0 52 59 -20 43 -20 43 19 56 27 10 39 19
39 33 0 22 -1 23 -53 7 -35 -11 -41 -10 -53 7 -23 31 -16 44 26 51 34 6 40 10
40 31 0 16 -4 22 -12 17 -7 -4 -28 -11 -48 -14 -30 -5 -37 -3 -50 20 -9 16
-22 25 -32 22z" />
    <path d="M18985 1184 c-6 -46 -6 -46 -66 -42 -56 3 -59 2 -59 -19 0 -21 5 -23
50 -23 28 0 50 -3 50 -7 0 -5 -22 -45 -50 -90 -46 -77 -48 -83 -30 -93 23 -12
46 16 94 122 32 68 36 73 77 83 62 14 71 51 11 41 -40 -6 -40 -6 -32 29 8 37
5 45 -21 45 -12 0 -19 -12 -24 -46z" />
    <path d="M16041 1145 c-6 -42 -11 -105 -11 -140 0 -63 1 -65 25 -65 23 0 25 4
25 44 0 131 121 225 173 135 20 -35 23 -138 6 -172 -20 -38 -71 -76 -121 -87
-50 -12 -53 -16 -39 -38 22 -36 157 32 196 98 31 53 28 172 -5 222 -25 38 -56
58 -89 58 -20 0 -89 -44 -108 -69 -16 -21 -18 7 -4 57 9 29 8 32 -13 32 -22 0
-25 -7 -35 -75z" />
    <path d="M17870 1180 c0 -39 0 -39 -50 -46 -40 -5 -50 -10 -50 -26 0 -17 5
-18 50 -12 68 9 67 -12 -5 -112 -44 -62 -53 -80 -44 -95 13 -26 13 -26 51 32
33 52 33 52 36 -30 3 -78 4 -81 27 -81 24 0 24 0 18 84 -8 113 -2 130 54 162
117 69 230 5 177 -99 -20 -39 -45 -57 -101 -77 -39 -14 -42 -17 -31 -33 26
-35 139 20 170 83 70 138 -64 245 -213 172 -48 -24 -59 -21 -41 9 7 11 9 25 5
32 -4 6 -6 26 -4 44 2 29 0 33 -23 33 -24 0 -26 -4 -26 -40z" />
    <path d="M19515 1202 c-3 -8 -2 -19 2 -23 11 -11 173 -40 184 -33 25 15 5 33
-48 44 -32 7 -75 15 -95 20 -29 6 -38 4 -43 -8z" />
    <path d="M18390 1175 c0 -24 0 -24 88 -18 101 7 104 12 -78 -137 -69 -56 -73
-62 -55 -80 13 -12 19 -10 47 17 70 66 142 84 208 51 51 -26 65 -69 35 -114
-21 -32 -36 -30 -57 6 -42 74 -158 59 -158 -19 0 -54 82 -85 166 -62 166 45
136 238 -36 241 -45 0 -45 0 -6 33 21 17 50 42 65 54 14 13 30 23 35 23 5 0 3
7 -4 15 -10 12 -38 15 -131 15 -119 0 -119 0 -119 -25z m155 -295 c16 -30 16
-30 -15 -30 -42 0 -70 16 -70 40 0 35 66 27 85 -10z" />
    <path d="M16765 1180 c-44 -4 -119 -11 -167 -15 -85 -8 -88 -9 -88 -33 0 -20
4 -23 23 -19 12 3 47 9 77 12 30 3 71 8 90 11 35 6 35 6 4 -28 -83 -91 -71
-204 28 -261 44 -25 118 -42 118 -27 0 5 3 15 6 23 4 11 -6 16 -41 21 -173 26
-155 245 24 279 47 9 61 16 61 29 0 20 0 20 -135 8z" />
    <path d="M19145 1142 c-4 -11 0 -21 11 -27 9 -5 32 -20 51 -32 18 -13 38 -23
42 -23 8 0 25 31 19 34 -2 1 -21 13 -43 27 -58 37 -72 40 -80 21z" />
    <path d="M15030 1130 c0 -16 -7 -20 -35 -20 -28 0 -35 -4 -35 -20 0 -16 7 -20
35 -20 34 0 35 -1 35 -40 0 -40 0 -40 100 -40 100 0 100 0 100 40 0 40 0 40
40 40 33 0 40 3 40 20 0 17 -7 20 -40 20 -33 0 -40 3 -40 20 0 13 -7 20 -20
20 -13 0 -20 -7 -20 -20 0 -18 -7 -20 -60 -20 -53 0 -60 2 -60 20 0 13 -7 20
-20 20 -13 0 -20 -7 -20 -20z m160 -80 c0 -18 -7 -20 -60 -20 -53 0 -60 2 -60
20 0 18 7 20 60 20 53 0 60 -2 60 -20z" />
    <path d="M19466 1108 c-3 -13 -7 -48 -10 -78 -4 -30 -9 -65 -12 -76 -9 -33 31
-39 51 -8 54 83 235 86 235 3 0 -58 -55 -89 -160 -89 -63 0 -68 -2 -63 -20 7
-26 35 -33 102 -25 130 16 192 85 155 173 -27 65 -143 81 -235 32 -37 -19 -40
-19 -35 -3 3 10 8 39 12 66 6 43 5 47 -15 47 -13 0 -22 -8 -25 -22z" />
    <path d="M16865 1100 c-8 -13 25 -70 40 -70 23 0 23 13 2 46 -23 35 -32 40
-42 24z" />
    <path d="M16813 1084 c-16 -7 24 -74 43 -74 8 0 14 3 14 6 0 7 -40 75 -43 73
-1 0 -7 -3 -14 -5z" />
    <path d="M19110 1011 c0 -56 -1 -58 -23 -54 -36 7 -96 -22 -107 -52 -14 -37
-13 -43 15 -70 48 -49 165 -20 165 40 0 21 8 19 45 -9 30 -23 32 -23 43 -6 12
20 -1 36 -54 63 -33 17 -44 46 -44 113 0 27 -4 34 -20 34 -18 0 -20 -7 -20
-59z m6 -105 c12 -30 -15 -57 -53 -54 -46 4 -67 33 -39 54 26 18 85 18 92 0z" />
    <path d="M14330 1020 c0 -19 7 -20 225 -20 218 0 225 1 225 20 0 19 -7 20
-225 20 -218 0 -225 -1 -225 -20z" />
    <path d="M17480 975 c-16 -19 86 -71 107 -54 11 10 7 16 -24 33 -57 33 -70 36
-83 21z" />
    <path d="M15103 962 c-118 -2 -143 -5 -143 -17 0 -9 9 -15 23 -15 21 0 95 -65
85 -75 -3 -3 -32 -10 -66 -16 -48 -9 -59 -14 -55 -26 6 -16 72 -13 143 8 28 9
52 6 120 -11 81 -21 85 -21 98 -3 12 17 9 19 -48 29 -78 14 -78 14 -30 61 67
68 65 69 -127 65z m107 -36 c0 -9 -68 -46 -83 -46 -9 0 -29 11 -44 25 -28 24
-28 24 50 25 42 0 77 -2 77 -4z" />
    <path d="M15484 955 c-13 -34 1 -98 27 -117 52 -39 229 -36 229 4 0 20 -4 20
-65 14 -116 -12 -171 18 -151 82 8 23 -32 40 -40 17z" />
    <path d="M17426 885 c-3 -10 1 -18 12 -21 36 -12 148 -58 158 -66 10 -8 42 18
33 26 -17 15 -172 76 -194 76 -2 0 -6 -7 -9 -15z" />
    <path d="M17315 880 c-16 -4 -47 -11 -67 -14 -23 -4 -38 -13 -38 -21 0 -27 7
-27 143 6 21 6 37 16 37 24 0 16 -27 18 -75 5z" />
  </g>
  <g transform="translate(0.000000,580.000000) scale(0.100000,-0.100000)" fill="#4f583b" stroke="none">
    <path d="M10820 4479 c-558 -9 -562 -10 -626 -66 -76 -67 -78 -81 -75 -431 3
-342 4 -351 63 -417 35 -41 87 -70 141 -80 37 -7 37 -7 37 -150 0 -125 2 -144
18 -158 38 -35 33 -39 329 279 28 31 28 31 428 36 463 6 465 6 537 103 50 66
52 86 46 425 -5 262 -7 289 -26 325 -51 100 -142 146 -281 143 -42 0 -308 -5
-591 -9z m737 -115 c62 -47 63 -52 63 -379 0 -409 11 -394 -280 -396 -102 -1
-290 -4 -418 -7 -233 -7 -233 -7 -280 -57 -108 -117 -183 -195 -187 -195 -3 0
-5 42 -5 94 0 112 -17 140 -93 151 -58 9 -101 36 -124 77 -26 48 -33 593 -8
648 39 84 42 85 839 88 459 2 459 2 493 -24z" />
    <path d="M10848 4297 c-92 -30 -155 -148 -118 -218 24 -44 90 -7 90 50 0 67
84 120 142 91 76 -39 78 -102 5 -173 -86 -84 -109 -143 -71 -181 31 -32 84 -9
84 37 1 32 20 61 71 105 74 66 88 147 36 223 -42 62 -156 94 -239 66z" />
    <path d="M10892 3774 c-26 -22 -26 -24 -12 -51 22 -40 81 -45 98 -8 27 59 -36
103 -86 59z" />
    <path d="M9804 3216 c-109 -27 -196 -103 -234 -203 -78 -209 114 -573 302
-573 151 0 318 244 318 465 0 101 -36 185 -103 238 -67 54 -98 66 -207 82 -14
2 -48 -2 -76 -9z m157 -100 c131 -56 172 -208 101 -374 -60 -140 -143 -224
-206 -208 -98 25 -211 231 -208 382 3 153 172 260 313 200z" />
    <path d="M9755 2314 c-336 -49 -626 -310 -699 -628 -35 -148 -33 -230 6 -266
21 -20 32 -20 809 -20 786 0 786 0 814 28 27 26 27 29 22 112 -27 427 -372
760 -802 774 -66 3 -133 2 -150 0z m300 -111 c303 -75 525 -336 559 -655 6
-58 6 -58 -745 -58 -751 0 -751 0 -744 53 60 474 479 772 930 660z" />
  </g>
  <g transform="translate(0.000000,580.000000) scale(0.100000,-0.100000)" fill="#080806" stroke="none">
    <path d="M10563 4383 c9 -2 23 -2 30 0 6 3 -1 5 -18 5 -16 0 -22 -2 -12 -5z" />
    <path d="M10112 4175 c0 -16 2 -22 5 -12 2 9 2 23 0 30 -3 6 -5 -1 -5 -18z" />
    <path d="M11714 4070 c0 -63 1 -89 3 -57 2 31 2 83 0 115 -2 31 -3 5 -3 -58z" />
    <path d="M10211 3694 c-1 -11 6 -29 15 -40 8 -10 12 -13 9 -6 -4 8 -11 26 -15
40 -7 22 -8 23 -9 6z" />
    <path d="M10101 3124 c13 -17 26 -30 28 -27 3 2 -8 16 -24 31 -28 27 -28 27
-4 -4z" />
    <path d="M9590 2714 c0 -6 7 -19 16 -30 14 -18 14 -18 3 6 -14 31 -19 36 -19
24z" />
    <path d="M10579 1925 c17 -33 31 -51 31 -40 0 6 -10 21 -21 35 -13 17 -17 18
-10 5z" />
    <path d="M9146 1695 c-3 -9 -6 -22 -5 -28 0 -7 5 -1 10 12 5 13 8 26 5 28 -2
2 -6 -3 -10 -12z" />
    <path d="M14960 1076 c0 -2 18 -6 40 -8 22 -2 40 0 40 4 0 5 -18 8 -40 8 -22
0 -40 -2 -40 -4z" />
    <path d="M15098 1073 c17 -2 47 -2 65 0 17 2 3 4 -33 4 -36 0 -50 -2 -32 -4z" />
    <path d="M15220 1072 c0 -4 17 -6 38 -4 58 5 62 10 10 11 -27 1 -48 -3 -48 -7z" />
  </g>
  <g transform="translate(0.000000,580.000000) scale(0.100000,-0.100000)" fill="#0a2230" stroke="none">
    <path d="M20069 4963 c-34 -38 -34 -38 4 -4 34 33 42 41 34 41 -2 0 -19 -17
-38 -37z" />
    <path d="M20684 4448 c-29 -33 -29 -33 4 -4 30 28 37 36 29 36 -2 0 -16 -15
-33 -32z" />
    <path d="M16209 4433 c-24 -28 -24 -28 4 -4 15 14 27 26 27 28 0 8 -8 1 -31
-24z" />
    <path d="M20379 4193 c-24 -28 -24 -28 4 -4 15 14 27 26 27 28 0 8 -8 1 -31
-24z" />
  </g>
  <g transform="translate(0.000000,580.000000) scale(0.100000,-0.100000)" fill="#34aaef" stroke="none" />
  <g transform="translate(0.000000,580.000000) scale(0.100000,-0.100000)" fill="#030c10" stroke="none" />
  <g transform="translate(0.000000,580.000000) scale(0.100000,-0.100000)" fill="#cccccc" stroke="none">
    <path d="M15120 2423 c0 -5 39 -7 87 -5 156 4 171 8 41 10 -71 1 -128 -1 -128
-5z" />
    <path d="M15228 2303 c-60 -2 -108 -7 -108 -11 0 -10 203 -2 215 9 5 5 7 8 5
7 -3 -1 -53 -4 -112 -5z" />
    <path d="M14093 2273 c15 -2 37 -2 50 0 12 2 0 4 -28 4 -27 0 -38 -2 -22 -4z" />
    <path d="M19520 2067 c0 -2 15 -16 33 -33 32 -29 32 -29 3 4 -28 30 -36 37
-36 29z" />
    <path d="M18097 2030 c3 -11 7 -20 9 -20 2 0 4 9 4 20 0 11 -4 20 -9 20 -5 0
-7 -9 -4 -20z" />
    <path d="M15000 1200 c-95 -6 -95 -6 3 -8 59 -1 97 2 97 8 0 6 -1 9 -2 8 -2
-1 -46 -5 -98 -8z" />
    <path d="M15139 1197 c4 -4 46 -7 92 -5 84 3 84 3 -8 8 -51 3 -89 1 -84 -3z" />
  </g>
  <g transform="translate(0.000000,580.000000) scale(0.100000,-0.100000)" fill="#bbbbbb" stroke="none">
    <path d="M19002 2290 c0 -19 2 -27 5 -17 2 9 2 25 0 35 -3 9 -5 1 -5 -18z" />
    <path d="M16887 1170 c3 -11 7 -20 9 -20 2 0 4 9 4 20 0 11 -4 20 -9 20 -5 0
-7 -9 -4 -20z" />
    <path d="M14995 1110 c-40 -7 -40 -7 -3 -9 20 0 40 4 43 9 3 6 5 9 3 9 -2 -1
-21 -5 -43 -9z" />
    <path d="M15220 1108 c0 -4 21 -8 48 -7 52 1 48 6 -10 11 -21 2 -38 0 -38 -4z" />
    <path d="M15098 1103 c17 -2 47 -2 65 0 17 2 3 4 -33 4 -36 0 -50 -2 -32 -4z" />
  </g>
  <g transform="translate(0.000000,580.000000) scale(0.100000,-0.100000)" fill="#1c5b80" stroke="none">
    <path d="M19273 5033 c9 -2 23 -2 30 0 6 3 -1 5 -18 5 -16 0 -22 -2 -12 -5z" />
    <path d="M13452 4490 c0 -19 2 -27 5 -17 2 9 2 25 0 35 -3 9 -5 1 -5 -18z" />
    <path d="M20542 4470 c0 -19 2 -27 5 -17 2 9 2 25 0 35 -3 9 -5 1 -5 -18z" />
    <path d="M18442 4350 c0 -19 2 -27 5 -17 2 9 2 25 0 35 -3 9 -5 1 -5 -18z" />
    <path d="M19343 3993 c9 -2 25 -2 35 0 9 3 1 5 -18 5 -19 0 -27 -2 -17 -5z" />
    <path d="M20392 3615 c0 -16 2 -22 5 -12 2 9 2 23 0 30 -3 6 -5 -1 -5 -18z" />
  </g>
  <g transform="translate(0.000000,580.000000) scale(0.100000,-0.100000)" fill="#4d5639" stroke="none">
    <path d="M11623 4170 c0 -47 2 -66 4 -42 2 23 2 61 0 85 -2 23 -4 4 -4 -43z" />
    <path d="M11022 4135 c0 -16 2 -22 5 -12 2 9 2 23 0 30 -3 6 -5 -1 -5 -18z" />
    <path d="M10122 3705 c0 -16 2 -22 5 -12 2 9 2 23 0 30 -3 6 -5 -1 -5 -18z" />
    <path d="M10363 3305 c0 -38 2 -53 4 -32 2 20 2 52 0 70 -2 17 -4 1 -4 -38z" />
    <path d="M9553 2905 c0 -27 2 -38 4 -22 2 15 2 37 0 50 -2 12 -4 0 -4 -28z" />
    <path d="M10012 2644 c-12 -19 -20 -34 -18 -34 7 0 49 61 44 65 -2 2 -13 -12
-26 -31z" />
    <path d="M9670 2571 c5 -11 15 -23 21 -27 6 -3 3 5 -6 20 -20 30 -30 35 -15 7z" />
    <path d="M10591 1680 c0 -8 4 -22 9 -30 12 -18 12 -2 0 25 -6 13 -9 15 -9 5z" />
  </g>
  <g transform="translate(0.000000,580.000000) scale(0.100000,-0.100000)" fill="#0e2e40" stroke="none" />
  <g transform="translate(0.000000,580.000000) scale(0.100000,-0.100000)" fill="#0f110c" stroke="none">
    <path d="M10112 4220 c0 -19 2 -27 5 -17 2 9 2 25 0 35 -3 9 -5 1 -5 -18z" />
    <path d="M15370 2168 c0 -4 6 -8 14 -8 8 0 17 4 20 8 2 4 -4 8 -15 8 -10 0
-19 -4 -19 -8z" />
  </g>
  <g transform="translate(0.000000,580.000000) scale(0.100000,-0.100000)" fill="#a9a9a9" stroke="none">
    <path d="M16990 2256 c0 -8 -6 -17 -12 -19 -8 -3 -6 -6 5 -6 11 -1 17 6 17 19
0 11 -2 20 -5 20 -3 0 -5 -6 -5 -14z" />
    <path d="M20253 2084 c1 -11 -4 -18 -11 -16 -8 1 -11 -2 -7 -9 5 -8 12 -6 23
5 12 12 13 19 5 27 -8 8 -11 6 -10 -7z" />
    <path d="M15222 1125 c0 -16 2 -22 5 -12 2 9 2 23 0 30 -3 6 -5 -1 -5 -18z" />
    <path d="M15223 1035 c0 -27 2 -38 4 -22 2 15 2 37 0 50 -2 12 -4 0 -4 -28z" />
  </g>
  <g transform="translate(0.000000,580.000000) scale(0.100000,-0.100000)" fill="#2d93cf" stroke="none" />
  <g transform="translate(0.000000,580.000000) scale(0.100000,-0.100000)" fill="#154460" stroke="none" />
  <g transform="translate(0.000000,580.000000) scale(0.100000,-0.100000)" fill="#444c33" stroke="none">
    <path d="M10893 4473 c9 -2 25 -2 35 0 9 3 1 5 -18 5 -19 0 -27 -2 -17 -5z" />
    <path d="M11353 4393 c9 -2 23 -2 30 0 6 3 -1 5 -18 5 -16 0 -22 -2 -12 -5z" />
    <path d="M10202 4190 c0 -19 2 -27 5 -17 2 9 2 25 0 35 -3 9 -5 1 -5 -18z" />
    <path d="M11623 4020 c0 -47 2 -66 4 -42 2 23 2 61 0 85 -2 23 -4 4 -4 -43z" />
    <path d="M11323 3583 c9 -2 25 -2 35 0 9 3 1 5 -18 5 -19 0 -27 -2 -17 -5z" />
    <path d="M11113 3493 c9 -2 23 -2 30 0 6 3 -1 5 -18 5 -16 0 -22 -2 -12 -5z" />
    <path d="M10362 3220 c0 -19 2 -27 5 -17 2 9 2 25 0 35 -3 9 -5 1 -5 -18z" />
    <path d="M9033 1495 c0 -22 2 -30 4 -17 2 12 2 30 0 40 -3 9 -5 -1 -4 -23z" />
  </g>
  <g transform="translate(0.000000,580.000000) scale(0.100000,-0.100000)" fill="#d2d2d2" stroke="none">
    <path d="M13032 2148 c1 -116 5 -102 10 35 2 42 0 77 -4 77 -5 0 -7 -51 -6
-112z" />
    <path d="M15510 911 c0 -11 4 -22 9 -25 4 -3 6 6 3 19 -5 30 -12 33 -12 6z" />
  </g>
  <g transform="translate(0.000000,580.000000) scale(0.100000,-0.100000)" fill="#949494" stroke="none">
    <path d="M14063 2373 c37 -2 97 -2 135 0 37 2 6 3 -68 3 -74 0 -105 -1 -67 -3z" />
    <path d="M15403 2205 c0 -22 2 -30 4 -17 2 12 2 30 0 40 -3 9 -5 -1 -4 -23z" />
  </g>
  <g transform="translate(0.000000,580.000000) scale(0.100000,-0.100000)" fill="#767676" stroke="none">
    <path d="M14550 1010 c-225 -6 -225 -6 3 -8 146 -1 227 2 227 8 0 6 -1 9 -2 8
-2 -1 -104 -5 -228 -8z" />
  </g>
  <g transform="translate(0.000000,580.000000) scale(0.100000,-0.100000)" fill="#2a89c0" stroke="none">
    <path d="M19233 5033 c9 -2 23 -2 30 0 6 3 -1 5 -18 5 -16 0 -22 -2 -12 -5z" />
    <path d="M17872 4310 c0 -19 2 -27 5 -17 2 9 2 25 0 35 -3 9 -5 1 -5 -18z" />
    <path d="M16356 4222 c-2 -4 -1 -14 5 -22 7 -12 9 -10 9 8 0 23 -5 28 -14 14z" />
  </g>
  <g transform="translate(0.000000,580.000000) scale(0.100000,-0.100000)" fill="#23719f" stroke="none" />
  <g transform="translate(0.000000,580.000000) scale(0.100000,-0.100000)" fill="#9c9c9c" stroke="none">
    <path d="M13025 2384 c71 -8 163 -8 158 -1 -2 4 -46 6 -96 5 -51 0 -78 -3 -62
-4z" />
    <path d="M15188 2333 c29 -2 74 -2 100 0 26 2 2 3 -53 3 -55 0 -76 -1 -47 -3z" />
  </g>
  <g transform="translate(0.000000,580.000000) scale(0.100000,-0.100000)" fill="#5d5d5d" stroke="none">
    <path d="M17718 2043 c28 -2 76 -2 105 0 28 2 5 3 -53 3 -58 0 -81 -1 -52 -3z" />
    <path d="M17958 2043 c28 -2 76 -2 105 0 28 2 5 3 -53 3 -58 0 -81 -1 -52 -3z" />
    <path d="M14703 2033 c9 -2 23 -2 30 0 6 3 -1 5 -18 5 -16 0 -22 -2 -12 -5z" />
    <path d="M14163 1993 c9 -2 23 -2 30 0 6 3 -1 5 -18 5 -16 0 -22 -2 -12 -5z" />
    <path d="M15033 1035 c0 -27 2 -38 4 -22 2 15 2 37 0 50 -2 12 -4 0 -4 -28z" />
  </g>
  <g transform="translate(0.000000,580.000000) scale(0.100000,-0.100000)" fill="#383e29" stroke="none">
    <path d="M10843 4473 c9 -2 25 -2 35 0 9 3 1 5 -18 5 -19 0 -27 -2 -17 -5z" />
    <path d="M11393 4393 c9 -2 25 -2 35 0 9 3 1 5 -18 5 -19 0 -27 -2 -17 -5z" />
    <path d="M10363 4383 c9 -2 23 -2 30 0 6 3 -1 5 -18 5 -16 0 -22 -2 -12 -5z" />
    <path d="M11622 3920 c0 -19 2 -27 5 -17 2 9 2 25 0 35 -3 9 -5 1 -5 -18z" />
    <path d="M11713 3750 c0 -25 2 -35 4 -22 2 12 2 32 0 45 -2 12 -4 2 -4 -23z" />
    <path d="M11283 3583 c9 -2 23 -2 30 0 6 3 -1 5 -18 5 -16 0 -22 -2 -12 -5z" />
    <path d="M11153 3493 c9 -2 25 -2 35 0 9 3 1 5 -18 5 -19 0 -27 -2 -17 -5z" />
    <path d="M9863 3133 c9 -2 23 -2 30 0 6 3 -1 5 -18 5 -16 0 -22 -2 -12 -5z" />
  </g>
  <g transform="translate(0.000000,580.000000) scale(0.100000,-0.100000)" fill="#319fdf" stroke="none" />
  <g transform="translate(0.000000,580.000000) scale(0.100000,-0.100000)" fill="#212419" stroke="none">
    <path d="M11438 4483 c12 -2 32 -2 45 0 12 2 2 4 -23 4 -25 0 -35 -2 -22 -4z" />
    <path d="M10743 4473 c9 -2 25 -2 35 0 9 3 1 5 -18 5 -19 0 -27 -2 -17 -5z" />
    <path d="M10463 4383 c9 -2 23 -2 30 0 6 3 -1 5 -18 5 -16 0 -22 -2 -12 -5z" />
    <path d="M11712 3875 c0 -16 2 -22 5 -12 2 9 2 23 0 30 -3 6 -5 -1 -5 -18z" />
    <path d="M11622 3800 c0 -19 2 -27 5 -17 2 9 2 25 0 35 -3 9 -5 1 -5 -18z" />
    <path d="M11193 3583 c9 -2 23 -2 30 0 6 3 -1 5 -18 5 -16 0 -22 -2 -12 -5z" />
    <path d="M11243 3493 c9 -2 25 -2 35 0 9 3 1 5 -18 5 -19 0 -27 -2 -17 -5z" />
    <path d="M9329 2003 c-24 -28 -24 -28 4 -4 15 14 27 26 27 28 0 8 -8 1 -31
-24z" />
  </g>
  <g transform="translate(0.000000,580.000000) scale(0.100000,-0.100000)" fill="#838383" stroke="none">
    <path d="M18822 2290 c0 -19 2 -27 5 -17 2 9 2 25 0 35 -3 9 -5 1 -5 -18z" />
  </g>
  <g transform="translate(0.000000,580.000000) scale(0.100000,-0.100000)" fill="#6a6a6a" stroke="none">
    <path d="M13183 2345 c0 -22 2 -30 4 -17 2 12 2 30 0 40 -3 9 -5 -1 -4 -23z" />
    <path d="M18892 2290 c0 -19 2 -27 5 -17 2 9 2 25 0 35 -3 9 -5 1 -5 -18z" />
  </g>
  <g transform="translate(0.000000,580.000000) scale(0.100000,-0.100000)" fill="#1f6790" stroke="none" />
  <g transform="translate(0.000000,580.000000) scale(0.100000,-0.100000)" fill="#151612" stroke="none" />
  <g transform="translate(0.000000,580.000000) scale(0.100000,-0.100000)" fill="#185070" stroke="none" />
  <g transform="translate(0.000000,580.000000) scale(0.100000,-0.100000)" fill="#1a1a1a" stroke="none" />
  <g transform="translate(0.000000,580.000000) scale(0.100000,-0.100000)" fill="#262a1c" stroke="none">
    <path d="M11712 3835 c0 -16 2 -22 5 -12 2 9 2 23 0 30 -3 6 -5 -1 -5 -18z" />
    <path d="M14194 2220 c0 -52 1 -74 3 -47 2 26 2 68 0 95 -2 26 -3 4 -3 -48z" />
  </g>
  <g transform="translate(0.000000,580.000000) scale(0.100000,-0.100000)" fill="#414141" stroke="none">
    <path d="M15120 2398 c0 -5 48 -7 108 -6 109 1 96 5 -36 10 -39 2 -72 0 -72
-4z" />
  </g>
  <g transform="translate(0.000000,580.000000) scale(0.100000,-0.100000)" fill="#3a3a3a" stroke="none">
    <path d="M14093 2163 c15 -2 37 -2 50 0 12 2 0 4 -28 4 -27 0 -38 -2 -22 -4z" />
    <path d="M17528 1193 c18 -2 45 -2 60 0 15 2 0 4 -33 4 -33 0 -45 -2 -27 -4z" />
  </g>
  <g transform="translate(0.000000,580.000000) scale(0.100000,-0.100000)" fill="#2d2d2d" stroke="none" />
  <g transform="translate(0.000000,580.000000) scale(0.100000,-0.100000)" fill="#4a4a4a" stroke="none" />
  <g transform="translate(0.000000,580.000000) scale(0.100000,-0.100000)" fill="#267daf" stroke="none" />
  <g transform="translate(0.000000,580.000000) scale(0.100000,-0.100000)" fill="#113950" stroke="none" />
  <g transform="translate(0.000000,580.000000) scale(0.100000,-0.100000)" fill="#c1c1c1" stroke="none" />
  <g transform="translate(0.000000,580.000000) scale(0.100000,-0.100000)" fill="#2d3322" stroke="none">
    <path d="M11622 3875 c0 -16 2 -22 5 -12 2 9 2 23 0 30 -3 6 -5 -1 -5 -18z" />
  </g>
  <g transform="translate(0.000000,580.000000) scale(0.100000,-0.100000)" fill="#535353" stroke="none" />
  <g transform="translate(0.000000,580.000000) scale(0.100000,-0.100000)" fill="#7e7e7e" stroke="none">
    <path d="M15098 1023 c17 -2 47 -2 65 0 17 2 3 4 -33 4 -36 0 -50 -2 -32 -4z" />
  </g>
  <g transform="translate(0.000000,580.000000) scale(0.100000,-0.100000)" fill="#333333" stroke="none" />
  <g transform="translate(0.000000,580.000000) scale(0.100000,-0.100000)" fill="#171a11" stroke="none" />
  <g transform="translate(0.000000,580.000000) scale(0.100000,-0.100000)" fill="#646464" stroke="none" />
</svg>