<svg width="3100.000000pt" height="580.000000pt" viewBox="0 0 3100.000000 580.000000" xmlns="http://www.w3.org/2000/svg">
  <g transform="translate(0.000000,580.000000) scale(0.100000,-0.100000)" fill="#fefefe" stroke="none">
    <path d="M0 2900 c0 -2900 0 -2900 15500 -2900 15500 0 15500 0 15500 2900 0
2900 0 2900 -15500 2900 -15500 0 -15500 0 -15500 -2900z m14675 2143 c68 -67
-180 -410 -381 -527 -42 -24 -101 -168 -111 -268 -10 -112 67 -154 170 -93 87
50 213 275 155 275 -66 0 -99 127 -38 143 77 20 94 -124 31 -260 -59 -126
-179 -218 -258 -198 -142 35 -135 223 20 501 179 322 345 494 412 427z m4805
-2 c-17 -33 -11 -45 31 -65 121 -55 188 -208 140 -319 -22 -50 -92 -127 -116
-127 -23 0 -18 -24 14 -56 82 -84 110 -205 69 -296 -75 -161 -272 -216 -411
-114 -33 24 -97 115 -97 136 1 8 12 -6 25 -32 116 -221 481 -104 453 146 -6
49 -38 120 -74 162 -22 25 -30 28 -97 28 -82 1 -132 20 -132 51 0 44 54 42
172 -6 39 -16 81 9 128 75 44 60 45 199 2 263 -33 47 -96 93 -129 93 -45 -1
-132 -154 -307 -533 -115 -252 -244 -359 -431 -361 -382 -4 -336 519 70 800
170 118 442 178 604 133 36 -10 41 -9 65 15 31 31 35 32 21 7z m790 -2 c41
-75 -124 -348 -355 -587 -101 -105 -98 -99 -93 -195 4 -68 8 -83 28 -99 68
-55 156 7 294 205 64 91 170 197 199 197 6 0 -10 -21 -35 -47 -127 -131 -186
-306 -123 -368 48 -49 139 -22 225 67 29 29 48 43 41 32 -33 -66 -144 -134
-218 -134 -65 0 -123 51 -123 108 0 41 -28 37 -74 -10 -98 -101 -180 -107
-239 -18 -57 88 -9 319 111 533 128 229 320 396 362 316z m-6385 2 c36 -8 33
-9 -33 -10 -106 -2 -243 -53 -330 -124 -342 -279 -433 -812 -153 -895 224 -68
516 102 651 378 12 25 25 52 30 61 49 94 51 280 4 355 -95 153 -352 98 -468
-100 -92 -157 -81 -344 23 -413 19 -13 28 -23 21 -23 -24 0 -97 49 -116 77
-41 62 -47 79 -47 153 -1 335 471 559 606 288 42 -82 45 -151 13 -261 -130
-439 -592 -692 -836 -456 -205 199 -65 685 254 878 130 78 276 113 381 92z
m3835 4 c0 -7 -131 -225 -136 -225 -3 0 21 67 55 153 6 15 15 38 21 52 8 22
60 39 60 20z m-3731 -40 c22 -13 43 -30 47 -37 4 -7 -1 -6 -12 3 -10 9 -37 26
-59 37 -22 12 -34 21 -27 22 7 0 30 -11 51 -25z m1918 -67 c-13 -18 -52 -79
-85 -134 -218 -363 -292 -634 -175 -634 54 0 86 31 177 168 120 181 163 228
101 109 -59 -112 -95 -208 -95 -253 0 -36 0 -36 50 -32 42 2 48 1 33 -9 -45
-34 -133 2 -133 53 0 22 -18 17 -58 -16 -67 -53 -151 -45 -167 17 -8 31 -31
29 -73 -8 -51 -45 -116 -72 -153 -64 -42 9 -96 60 -104 96 -11 48 -26 44 -97
-26 -61 -59 -71 -65 -109 -65 -53 0 -79 22 -79 67 0 27 -4 33 -22 33 -21 0
-21 0 4 28 14 15 50 65 81 112 102 159 126 173 57 34 -95 -193 -102 -254 -28
-254 56 0 121 67 198 204 105 187 227 257 385 222 29 -7 32 -4 69 61 57 99
123 196 184 270 54 65 85 82 39 21z m-649 -240 c4 -21 -44 -72 -58 -63 -15 9
-12 38 6 63 18 26 47 26 52 0z m848 11 c10 -16 -15 -55 -42 -68 -21 -9 -24 -8
-24 12 0 45 47 86 66 56z m-1318 -116 c-10 -26 -8 -47 11 -122 31 -127 27
-235 -10 -275 -15 -16 -10 -36 9 -36 33 -1 -30 -39 -85 -51 -41 -9 -62 -9 -93
0 -54 16 -50 27 8 23 107 -8 150 94 144 336 -2 83 -17 94 -52 37 -12 -19 -24
-35 -27 -35 -6 0 30 60 70 117 34 49 42 50 25 6z m3054 25 c-16 -16 -15 -92 2
-148 32 -106 30 -162 -10 -289 -7 -22 -5 -23 22 -17 22 5 25 4 14 -4 -84 -60
-200 -75 -242 -31 -23 23 -23 23 -1 12 119 -61 205 78 188 301 -7 89 -15 103
-44 76 -7 -7 4 15 25 50 22 34 43 62 48 62 6 0 5 -5 -2 -12z m-932 -48 c12
-12 20 -33 20 -55 0 -41 21 -47 54 -16 67 61 143 76 181 35 47 -51 30 -129
-61 -284 -60 -102 -53 -168 16 -140 37 15 139 123 176 185 14 25 28 44 31 42
8 -9 -68 -117 -115 -165 -87 -89 -142 -105 -182 -55 -32 41 -13 98 90 262 68
109 51 189 -34 161 -31 -10 -123 -95 -183 -170 -15 -19 -30 -37 -33 -40 -3 -3
-38 -50 -79 -105 -41 -55 -78 -104 -82 -109 -4 -4 -14 -4 -23 1 -15 8 18 71
54 103 70 63 183 329 149 351 -24 15 -38 10 -87 -32 -47 -42 -47 -42 0 5 51
50 77 57 108 26z m3587 5 c44 -31 51 -154 13 -224 -19 -37 -12 -61 18 -63 16
0 10 -3 -18 -7 -32 -4 -46 -2 -48 7 -2 6 -7 12 -12 12 -14 0 -47 62 -59 114
-25 104 42 206 106 161z m506 -10 c22 -7 46 -23 54 -34 17 -26 31 -27 50 -3 7
9 -13 -37 -46 -104 -173 -350 -178 -369 -91 -311 19 13 49 32 65 42 30 17 30
17 5 -4 -14 -11 -54 -39 -90 -61 -45 -27 -69 -49 -79 -72 -96 -228 -195 -379
-292 -444 -113 -76 -204 -19 -163 102 35 104 141 203 340 318 73 41 83 51 99
92 20 54 15 62 -28 45 -140 -56 -227 -14 -227 109 0 32 -4 60 -9 62 -5 2 8 23
30 48 21 24 39 47 39 51 0 26 137 130 205 156 64 25 88 26 138 8z m-4553 -10
c16 -8 34 -24 40 -35 14 -26 28 -25 58 3 25 22 25 22 0 -18 -58 -94 -120 -238
-125 -291 -6 -54 -6 -54 36 -54 26 0 40 -4 36 -10 -9 -15 -84 -12 -100 4 -8 7
-17 27 -21 42 -4 16 -11 32 -16 35 -4 3 24 53 62 111 76 115 84 147 48 185
-98 105 -378 -124 -378 -309 0 -66 15 -88 66 -98 39 -8 39 -8 -7 -9 -58 -1
-94 25 -110 80 -15 47 -23 48 -66 7 -18 -18 -33 -28 -33 -22 0 5 9 15 19 21
10 7 45 52 77 100 150 225 299 318 414 258z m-4891 -80 c93 -62 100 -94 121
-509 11 -231 8 -259 -39 -323 -55 -76 -108 -93 -332 -103 -639 -30 -584 -16
-722 -179 -211 -246 -210 -246 -222 -16 -7 145 -7 145 -37 145 -49 0 -134 47
-168 93 -43 59 -48 85 -60 332 -5 121 -13 241 -16 267 -12 99 44 210 129 253
42 22 248 37 962 69 285 12 325 9 384 -29z m5074 -187 c-38 -59 -63 -86 -98
-111 -23 -16 -20 -11 11 20 23 22 55 61 73 87 40 58 51 61 14 4z m4557 -1 c0
-1 -24 -25 -52 -52 -53 -50 -53 -50 -3 3 46 48 55 57 55 49z m-3220 -30 c0 -2
-19 -21 -42 -42 -43 -40 -43 -40 -3 3 36 39 45 47 45 39z m-8002 -1073 c104
-30 189 -115 220 -220 43 -146 -93 -433 -237 -502 -148 -70 -326 107 -381 379
-43 216 178 406 398 343z m7390 -811 c-1 -115 54 -236 141 -314 30 -27 50 -49
44 -49 -40 0 -144 129 -169 210 -11 35 -44 55 -44 26 0 -60 -131 -236 -177
-236 -14 0 -13 3 7 17 107 74 170 204 170 347 0 41 4 56 14 56 10 0 14 -15 14
-57z m542 12 c0 -45 0 -45 84 -45 47 0 88 -4 91 -10 4 -6 -27 -10 -84 -10 -91
0 -91 0 -91 -65 0 -65 0 -65 80 -65 47 0 80 -4 80 -10 0 -6 -33 -10 -80 -10
-80 0 -80 0 -80 -70 0 -70 0 -70 100 -70 60 0 100 -4 100 -10 0 -6 -77 -10
-210 -10 -133 0 -210 4 -210 10 0 6 40 10 100 10 100 0 100 0 100 70 0 70 0
70 -75 70 -43 0 -75 4 -75 10 0 6 32 10 75 10 75 0 75 0 75 65 0 65 0 65 -68
65 -67 0 -68 0 -86 -35 -11 -19 -23 -35 -27 -35 -5 0 7 30 26 66 19 36 35 74
35 85 0 10 5 19 10 19 6 0 10 -9 10 -19 0 -11 -4 -23 -10 -26 -31 -19 -8 -35
50 -35 60 0 60 0 60 45 0 25 5 45 10 45 6 0 10 -20 10 -45z m-5022 19 c18 -8
32 -20 32 -25 0 -11 -22 -1 -55 25 -26 20 -16 20 23 0z m1108 -31 c-6 -6 -66
29 -66 39 0 4 16 -2 35 -14 20 -11 34 -23 31 -25z m1059 21 c30 -25 30 -25 -2
-10 -17 9 -35 20 -38 26 -11 18 10 10 40 -16z m315 -54 c0 -70 0 -70 -117 -68
-118 2 -118 2 -10 5 107 4 107 4 107 33 0 30 0 30 -97 32 -98 2 -98 2 0 5 95
4 97 4 97 28 0 24 -1 24 -107 28 -108 3 -108 3 10 5 117 2 117 2 117 -68z
m1400 29 c0 -41 0 -41 45 -35 29 5 45 4 45 -3 0 -6 -11 -11 -24 -11 -66 0 -83
-10 -90 -54 -6 -38 -35 -132 -56 -181 -4 -11 -11 -28 -14 -37 -5 -18 -26 -25
-26 -10 0 5 7 23 15 39 17 34 65 189 65 210 0 9 -15 13 -50 13 -33 0 -50 4
-50 13 0 8 17 12 50 12 56 0 70 12 70 58 0 15 5 27 10 27 6 0 10 -19 10 -41z
m2410 31 c0 -6 -30 -10 -70 -10 -68 0 -70 -1 -70 -25 0 -24 3 -25 55 -25 55 0
55 0 55 -50 0 -50 0 -50 -55 -50 -54 0 -55 0 -55 -30 0 -30 0 -30 75 -30 43 0
75 -4 75 -10 0 -6 -77 -10 -210 -10 -133 0 -210 4 -210 10 0 6 30 10 70 10 70
0 70 0 70 30 0 29 -1 30 -50 30 -50 0 -50 0 -50 50 0 50 0 50 50 50 47 0 50 2
50 25 0 24 -2 25 -65 25 -37 0 -65 4 -65 10 0 6 73 10 200 10 127 0 200 -4
200 -10z m1376 -30 c-7 -44 -6 -44 42 -31 17 5 32 6 32 1 0 -11 -26 -20 -60
-20 -23 0 -30 -6 -39 -32 -18 -52 -93 -178 -103 -172 -4 3 0 18 11 32 79 112
88 162 27 162 -25 0 -48 5 -51 10 -4 6 17 10 54 10 61 0 61 0 67 40 4 22 11
40 17 40 6 0 7 -16 3 -40z m-7336 -30 c0 -60 0 -60 -110 -60 -110 0 -110 0
-110 -57 0 -79 -38 -213 -61 -213 -4 0 2 19 14 43 18 36 22 64 25 195 4 152 4
152 123 152 119 0 119 0 119 -60z m1110 50 c0 -5 -9 -10 -20 -10 -19 0 -20 -7
-20 -180 0 -167 -1 -180 -19 -190 -25 -13 -101 -13 -101 0 0 6 23 10 50 10 50
0 50 0 50 180 0 180 0 180 -120 180 -73 0 -120 4 -120 10 0 6 57 10 150 10 93
0 150 -4 150 -10z m1355 -38 c-6 -49 -6 -49 38 -48 73 2 90 -21 85 -114 -5
-113 -29 -154 -90 -158 -32 -2 -48 1 -48 9 0 7 9 9 26 5 60 -16 94 44 94 165
0 64 -13 79 -67 79 -43 0 -51 -10 -84 -105 -30 -91 -64 -155 -79 -155 -5 0 -1
15 10 33 28 47 70 163 70 194 0 25 -1 26 -50 20 -39 -5 -50 -3 -50 8 0 10 16
15 57 17 58 3 58 3 67 51 11 63 30 62 21 -1z m2708 8 c-6 -40 -6 -40 46 -40
32 0 50 -4 46 -10 -3 -5 -28 -10 -56 -10 -47 0 -49 -1 -49 -27 0 -16 -3 -38
-6 -50 -6 -22 -4 -23 50 -23 31 0 56 -4 56 -10 0 -5 -25 -10 -55 -10 -55 0
-55 0 -55 -54 0 -70 19 -86 103 -86 102 0 153 92 90 162 -10 11 -12 18 -4 18
18 0 51 -62 51 -97 0 -46 -36 -82 -95 -97 -100 -26 -165 15 -165 105 0 44 -2
49 -22 49 -13 1 -36 7 -53 15 -29 13 -27 14 28 8 57 -6 57 -6 57 45 0 48 -2
52 -27 58 -67 14 -78 24 -21 18 56 -5 56 -5 63 35 9 53 25 54 18 1z m1207 33
c-1 -5 -41 -39 -90 -78 -118 -93 -118 -96 5 -199 52 -43 95 -83 95 -88 0 -20
-6 -15 -188 148 -46 41 -40 53 71 146 89 74 107 86 107 71z m319 -35 c-19
-100 -23 -248 -6 -248 14 0 14 -73 0 -89 -28 -33 -39 207 -14 322 14 65 33 79
20 15z m251 -2 c0 -45 0 -45 43 -48 42 -4 42 -4 0 -12 -43 -9 -43 -9 -43 -75
0 -74 1 -76 53 -114 20 -15 37 -32 37 -38 0 -5 -10 -1 -22 11 -31 29 -52 25
-70 -14 -21 -43 -65 -54 -117 -29 -39 20 -53 60 -28 81 11 9 13 6 9 -20 -6
-38 16 -58 63 -58 40 0 55 16 55 57 0 33 0 33 -52 34 -58 0 -41 17 20 18 32 1
32 1 32 72 0 71 0 71 -32 68 -58 -4 -98 1 -98 11 0 6 28 10 65 10 65 0 65 0
65 45 0 25 5 45 10 45 6 0 10 -20 10 -44z m-5651 8 c-21 -56 -24 -244 -4 -244
13 0 16 -5 10 -22 -3 -13 -10 -36 -14 -53 -11 -48 -24 -12 -29 83 -5 101 16
262 35 262 9 0 10 -6 2 -26z m-840 -20 c73 -43 101 -145 61 -224 -23 -45 -96
-94 -132 -88 -22 4 -21 5 7 16 86 33 116 67 123 140 8 85 -52 162 -127 162
-20 0 -22 -6 -37 -95 -15 -87 -78 -195 -113 -195 -43 1 -81 58 -81 121 0 136
179 234 299 163z m7313 -18 c-13 -109 30 -257 75 -264 22 -3 63 39 63 64 0 8
5 14 10 14 26 0 -16 -82 -52 -101 -25 -13 -61 9 -83 51 -29 57 -47 270 -22
270 9 0 12 -11 9 -34z m-6172 15 c0 -20 -103 -29 -157 -15 -49 13 -19 24 67
24 50 0 90 -4 90 -9z m1088 -65 c17 -34 32 -72 32 -82 -1 -14 -77 124 -80 144
-3 21 23 -12 48 -62z m5385 1 c15 -31 31 -79 34 -108 9 -73 -11 -56 -26 23 -7
35 -23 82 -37 106 -13 24 -18 42 -11 39 7 -2 25 -29 40 -60z m-539 32 c20 -12
36 -25 36 -30 0 -7 -69 29 -89 47 -14 13 24 0 53 -17z m-10661 -39 c342 -92
591 -386 614 -725 10 -147 83 -135 -832 -135 -912 0 -821 -13 -819 119 5 365
284 671 694 760 71 16 254 6 343 -19z m4097 -55 c0 -85 0 -85 -59 -85 -48 0
-60 -3 -64 -17 -3 -10 -5 28 -6 85 -1 102 -1 102 64 102 65 0 65 0 65 -85z
m860 40 c0 -10 -16 -4 -40 16 -25 20 -25 20 8 4 17 -8 32 -18 32 -20z m-2179
9 c17 -8 28 -18 25 -21 -3 -3 -20 4 -38 16 -39 24 -30 28 13 5z m1081 -4 c18
-11 29 -20 23 -20 -16 1 -82 39 -68 40 7 0 27 -9 45 -20z m2411 -1 c96 -26 97
-139 2 -194 -48 -28 -129 -43 -139 -26 -4 7 1 11 13 11 101 0 171 47 171 114
0 89 -63 108 -201 61 -41 -13 -77 -21 -82 -16 -4 4 11 14 35 21 37 10 144 37
158 39 3 1 22 -4 43 -10z m637 -9 c0 -6 -33 -10 -80 -10 -47 0 -80 4 -80 10 0
6 33 10 80 10 47 0 80 -4 80 -10z m3684 -59 c7 -64 9 -70 36 -81 28 -11 71
-50 56 -50 -4 0 -19 9 -33 20 -14 11 -32 20 -39 20 -8 0 -14 -9 -14 -20 0 -51
-69 -81 -124 -55 -73 35 -31 115 61 115 45 0 45 0 41 60 -4 83 8 76 16 -9z
m-7614 4 c0 -36 3 -45 18 -45 16 -1 16 -1 0 -11 -14 -8 -18 -23 -18 -65 0 -55
0 -55 77 -52 78 3 78 3 84 33 7 30 7 30 8 3 2 -43 -22 -58 -94 -58 -90 0 -95
7 -95 136 0 63 4 104 10 104 6 0 10 -20 10 -45z m2340 5 c0 -16 -4 -30 -10
-30 -5 0 -10 9 -10 20 0 33 -267 31 -273 -2 -3 -17 -5 -14 -6 10 -1 32 -1 32
149 32 150 0 150 0 150 -30z m-2205 1 c-7 -12 -67 -43 -72 -37 -4 4 57 44 70
45 5 1 6 -3 2 -8z m2149 -40 c3 -4 -10 -26 -29 -49 -46 -53 -45 -67 10 -83 25
-7 45 -17 45 -20 0 -9 -48 4 -80 21 -13 7 -40 10 -64 7 -30 -4 -36 -3 -23 4
26 15 21 30 -23 74 -21 22 -39 43 -40 48 0 10 198 9 204 -2z m-2445 -28 c-15
-41 -60 -115 -66 -110 -5 5 65 137 73 137 2 0 -1 -12 -7 -27z m1055 -56 c-21
-36 -41 -64 -45 -62 -4 3 12 37 34 75 52 87 61 77 11 -13z m1084 20 c-17 -42
-60 -109 -47 -72 28 75 55 133 61 129 3 -2 -3 -28 -14 -57z m-406 16 c4 -46
32 -57 131 -48 64 5 91 -6 45 -19 -99 -26 -198 9 -198 69 0 47 18 45 22 -2z
m2209 -54 c12 -6 52 -9 90 -7 50 2 69 0 69 -9 0 -17 -126 -17 -160 0 -29 15
-47 57 -34 83 6 15 9 12 12 -18 2 -25 10 -42 23 -49z m1959 11 c-26 -52 -33
-52 -12 0 9 22 20 40 25 40 4 0 -2 -18 -13 -40z m80 -5 c0 -45 0 -45 94 -45
95 0 95 0 98 28 4 22 6 24 12 9 16 -35 -10 -47 -108 -47 -58 0 -96 4 -104 12
-14 14 -16 88 -2 88 6 0 10 -20 10 -45z m269 10 c11 -19 17 -35 12 -35 -7 0
-15 14 -39 63 -11 23 9 2 27 -28z m-3971 -50 c-11 -11 -68 -23 -68 -15 0 5 12
11 28 13 15 2 31 5 36 6 5 0 7 -1 4 -4z m-48 -847 c0 -4 39 -9 88 -11 48 -1 5
-4 -95 -5 -183 -2 -183 -2 -183 -85 0 -86 -12 -174 -32 -239 -21 -69 -24 -39
-6 50 10 48 18 131 18 185 0 97 0 97 96 97 96 0 96 0 90 28 -6 26 -6 26 9 8 8
-11 15 -23 15 -28z m2165 -23 c-15 -31 -32 -58 -37 -61 -5 -3 6 24 24 60 17
36 34 63 37 61 2 -3 -8 -30 -24 -60z m198 40 c-5 -23 -3 -24 62 -27 67 -3 67
-3 31 -55 -47 -68 -46 -72 16 -107 29 -16 47 -31 40 -34 -6 -2 -32 10 -57 27
-47 32 -79 39 -90 21 -8 -13 -85 -53 -91 -47 -2 2 19 16 47 31 59 33 68 49 43
79 -19 22 -19 22 2 5 27 -24 33 -23 66 9 48 46 38 63 -33 63 -59 0 -61 -1 -57
-23 4 -20 1 -23 -17 -19 -12 2 -27 -4 -34 -12 -8 -9 -17 -16 -22 -16 -4 0 5
14 21 31 15 17 36 47 46 65 22 40 33 44 27 9z m-1830 -39 c2 -7 17 -7 50 1 26
5 47 6 47 2 0 -5 -18 -12 -40 -15 -44 -7 -50 -22 -28 -69 9 -20 17 -25 32 -20
54 15 79 18 73 8 -4 -6 -23 -14 -42 -17 -40 -8 -42 -17 -16 -68 10 -21 16 -40
13 -43 -9 -9 -71 -5 -77 5 -4 6 5 10 19 10 28 0 32 13 16 56 -10 26 -10 26
-93 19 -79 -6 -137 0 -137 14 0 3 30 4 66 3 124 -7 147 5 122 61 -12 25 -18
28 -58 27 -88 -3 -130 0 -130 10 0 5 32 8 73 7 72 -2 72 -2 75 28 4 28 5 29
18 11 7 -10 15 -24 17 -30z m410 -6 c-7 -59 5 -64 51 -23 31 28 31 28 0 -7
-40 -46 -54 -81 -54 -135 0 -33 -4 -45 -15 -45 -19 0 -20 72 -3 183 13 84 31
108 21 27z m1831 -25 c-6 -84 -1 -89 49 -53 103 74 244 5 222 -108 -11 -62
-138 -159 -160 -123 -3 4 7 11 22 15 100 24 148 106 108 183 -30 59 -116 65
-201 15 -53 -31 -58 -47 -52 -160 3 -65 1 -84 -9 -84 -10 0 -13 20 -13 80 0
64 -3 80 -15 80 -8 0 -15 -4 -15 -9 0 -5 -6 -16 -13 -23 -7 -7 -21 -24 -30
-38 -9 -13 -17 -19 -17 -12 0 11 42 74 60 92 20 19 40 64 40 91 0 31 0 31 -50
24 -30 -4 -50 -3 -50 3 0 5 23 12 50 16 50 7 50 7 50 46 0 29 4 40 15 40 12 0
14 -13 9 -75z m1111 39 c-6 -37 -6 -37 34 -30 24 4 41 2 41 -3 0 -5 -20 -13
-44 -16 -42 -7 -46 -10 -66 -57 -28 -66 -79 -148 -92 -148 -5 0 -1 12 10 28
28 40 72 129 72 147 0 11 -11 15 -44 15 -25 0 -48 5 -51 10 -4 6 17 10 54 10
61 0 61 0 67 40 4 22 11 40 16 40 6 0 7 -15 3 -36z m574 16 c20 -5 53 -12 75
-15 23 -4 35 -10 29 -16 -5 -5 -41 -2 -91 9 -46 10 -80 21 -76 25 10 9 20 9
63 -3z m-966 -7 c2 -5 -24 -30 -59 -58 -79 -62 -83 -83 -16 -82 169 2 188
-181 22 -215 -115 -23 -190 54 -97 100 32 16 77 -3 103 -43 34 -52 84 -18 84
56 0 108 -170 127 -272 31 -15 -14 -30 -23 -33 -20 -3 2 45 46 105 97 137 115
139 125 25 119 -47 -2 -85 -1 -85 3 0 5 35 10 78 12 42 1 91 4 109 5 17 1 34
-1 36 -5z m-2354 -39 c91 -112 21 -281 -131 -318 -45 -10 -32 10 15 23 94 28
127 72 127 174 0 102 -38 157 -97 142 -16 -4 -22 -2 -18 5 15 25 73 11 104
-26z m621 21 c0 -11 -12 -15 -49 -15 -189 0 -219 -266 -33 -296 53 -8 43 -28
-10 -21 -134 18 -181 179 -79 271 38 35 28 49 -31 41 -139 -20 -168 -21 -168
-10 0 8 57 17 168 27 92 8 175 16 185 16 9 1 17 -5 17 -13z m-1830 -45 c0 -18
7 -20 70 -20 63 0 70 2 70 20 0 11 5 20 10 20 6 0 10 -9 10 -20 0 -17 7 -20
40 -20 22 0 40 -4 40 -10 0 -5 -18 -10 -40 -10 -40 0 -40 0 -40 -40 0 -40 0
-40 -90 -40 -90 0 -90 0 -90 40 0 39 -1 40 -35 40 -19 0 -35 5 -35 10 0 6 16
10 35 10 28 0 35 4 35 20 0 11 5 20 10 20 6 0 10 -9 10 -20z m4194 -42 c-3 -4
-21 4 -41 17 -20 14 -40 25 -44 25 -5 0 -9 5 -9 11 0 5 22 -2 49 -18 27 -15
48 -31 45 -35z m-1908 5 c-8 -15 -25 -39 -38 -53 -13 -14 -20 -21 -15 -16 21
28 7 49 -28 43 -39 -6 -53 4 -30 23 10 9 15 9 15 1 0 -26 87 -7 96 21 3 11 8
17 11 15 2 -3 -2 -18 -11 -34z m2151 10 c-23 -117 -21 -122 45 -84 71 41 148
39 192 -6 51 -51 24 -132 -54 -161 -45 -17 -128 -24 -147 -13 -15 8 -9 10 28
11 136 1 221 79 166 154 -32 44 -170 29 -225 -24 -43 -40 -43 -40 -37 38 8 90
13 112 26 112 7 0 9 -11 6 -27z m-353 -100 c7 -67 8 -68 49 -88 22 -11 43 -27
45 -34 3 -9 -6 -7 -26 7 -41 30 -58 28 -65 -7 -15 -72 -157 -64 -157 9 0 36
36 60 90 60 40 0 40 0 40 60 0 81 16 76 24 -7z m-4374 27 c0 -6 -78 -10 -215
-10 -137 0 -215 4 -215 10 0 6 78 10 215 10 137 0 215 -4 215 -10z m2553 -56
c68 7 28 -10 -43 -20 -55 -7 -59 -4 -32 26 15 18 17 19 20 4 3 -14 13 -15 55
-10z m217 -14 c19 -11 31 -19 25 -19 -5 0 -26 8 -45 19 -19 11 -30 19 -25 19
6 0 26 -8 45 -19z m-2322 -45 c-27 -24 -48 -47 -48 -53 0 -11 68 -32 104 -32
15 0 25 -4 22 -9 -6 -9 -46 -2 -125 20 -37 10 -54 9 -111 -5 -37 -10 -76 -16
-86 -14 -11 2 11 9 49 17 37 7 67 18 67 23 0 17 -77 86 -102 91 -13 2 45 5
127 5 150 1 150 1 103 -43z m324 -51 c23 -12 51 -15 109 -12 86 3 106 -7 33
-18 -128 -19 -223 39 -188 114 6 12 9 4 12 -26 3 -35 8 -45 34 -58z m1838 18
c0 -10 -148 -37 -156 -29 -3 3 9 8 27 12 54 9 124 23 127 24 1 1 2 -3 2 -7z
m111 -3 c49 -16 122 -49 117 -54 -2 -2 -42 11 -88 30 -83 34 -98 46 -29 24z" />
    <path d="M14605 5021 c-46 -27 -225 -264 -225 -297 0 -2 -18 -36 -40 -75 -43
-76 -49 -99 -25 -99 41 0 228 192 298 305 87 142 83 222 -8 166z" />
    <path d="M14457 4553 c-30 -29 8 -103 53 -103 21 0 22 3 16 46 -3 25 -8 50
-12 55 -6 10 -47 12 -57 2z" />
    <path d="M19110 4990 c-314 -86 -547 -319 -595 -597 -34 -196 30 -293 192
-293 196 1 261 72 463 505 43 94 131 249 149 265 4 3 19 23 36 45 16 22 36 45
44 51 59 45 -150 63 -289 24z" />
    <path d="M19292 4553 c4 -20 36 -31 101 -32 53 -1 64 18 22 37 -42 20 -127 16
-123 -5z" />
    <path d="M20142 4983 c-32 -32 -66 -69 -75 -83 -81 -120 -108 -166 -144 -240
-43 -89 -83 -200 -83 -232 0 -34 27 -18 86 50 33 37 67 76 77 87 71 77 198
264 232 341 62 139 11 180 -93 77z" />
    <path d="M15463 4561 c-179 -82 -269 -411 -112 -411 90 0 181 81 203 183 9 40
28 99 41 132 14 33 25 68 25 77 0 40 -87 50 -157 19z" />
    <path d="M20419 4543 c-38 -70 -5 -228 47 -228 41 0 74 193 40 238 -21 27 -70
22 -87 -10z" />
    <path d="M20894 4536 c-162 -51 -308 -295 -233 -390 21 -26 26 -28 80 -24 87
6 148 51 201 148 23 41 61 105 85 143 51 79 51 81 17 112 -31 29 -82 32 -150
11z" />
    <path d="M20740 3967 c-217 -130 -364 -331 -294 -401 36 -37 123 1 175 76 13
18 26 35 29 38 21 17 150 270 150 294 0 21 -17 19 -60 -7z" />
    <path d="M11385 4445 c-11 -4 -235 -16 -760 -40 -484 -23 -473 -16 -461 -290
20 -436 23 -462 59 -507 19 -24 79 -48 120 -48 68 0 97 -58 97 -191 0 -54 17
-65 43 -29 17 24 115 137 172 197 45 48 -25 40 640 73 321 17 321 16 311 324
-13 355 -19 412 -53 454 -38 47 -120 75 -168 57z m-442 -136 c128 -35 164
-169 71 -259 -52 -51 -74 -88 -74 -124 0 -46 -65 -56 -76 -12 -8 34 11 70 71
136 50 54 55 64 55 105 0 137 -200 140 -217 3 -7 -50 -18 -68 -44 -68 -26 0
-42 35 -33 73 24 114 133 178 247 146z m5 -530 c11 -18 11 -24 -4 -40 -37 -41
-99 -6 -74 41 15 27 61 27 78 -1z" />
    <path d="M9797 3116 c-163 -61 -199 -230 -94 -445 100 -203 248 -201 354 6 98
191 83 330 -45 416 -51 35 -154 46 -215 23z" />
    <path d="M18920 2365 c0 -23 4 -25 45 -25 41 0 45 2 45 25 0 23 -4 25 -45 25
-41 0 -45 -2 -45 -25z" />
    <path d="M18820 2285 c0 -34 1 -35 40 -35 39 0 40 1 40 35 0 34 -1 35 -40 35
-39 0 -40 -1 -40 -35z" />
    <path d="M18920 2285 c0 -35 0 -35 45 -35 45 0 45 0 45 35 0 35 0 35 -45 35
-45 0 -45 0 -45 -35z" />
    <path d="M19030 2285 c0 -35 0 -35 45 -35 45 0 45 0 45 35 0 35 0 35 -45 35
-45 0 -45 0 -45 -35z" />
    <path d="M18920 2210 c0 -29 2 -30 45 -30 43 0 45 1 45 30 0 29 -2 30 -45 30
-43 0 -45 -1 -45 -30z" />
    <path d="M12990 2345 c0 -45 0 -45 100 -45 100 0 100 0 100 45 0 45 0 45 -100
45 -100 0 -100 0 -100 -45z" />
    <path d="M13480 2331 c-103 -55 -126 -236 -31 -236 42 0 65 39 93 154 26 112
18 124 -62 82z" />
    <path d="M9725 2214 c-44 -8 -93 -19 -110 -26 -55 -21 -167 -78 -182 -93 -8
-8 -18 -15 -22 -15 -16 0 -138 -129 -171 -180 -46 -70 -79 -141 -99 -210 -10
-36 -31 -166 -31 -194 0 -14 79 -16 761 -16 761 0 761 0 754 68 -44 451 -444
747 -900 666z" />
    <path d="M14060 2215 c0 -65 0 -65 55 -65 55 0 55 0 55 65 0 65 0 65 -55 65
-55 0 -55 0 -55 -65z" />
    <path d="M20564 2120 c-51 -20 -43 -76 12 -86 54 -10 84 8 84 50 0 30 -4 34
-31 40 -37 7 -38 7 -65 -4z" />
    <path d="M15180 2138 c0 -18 51 -68 70 -68 19 0 70 50 70 68 0 8 -22 12 -70
12 -48 0 -70 -4 -70 -12z" />
    <path d="M18457 903 c-32 -32 5 -73 65 -73 50 0 56 6 37 43 -19 34 -80 53
-102 30z" />
    <path d="M15060 1035 c0 -35 0 -35 70 -35 70 0 70 0 70 35 0 35 0 35 -70 35
-70 0 -70 0 -70 -35z" />
    <path d="M19017 902 c-36 -40 -14 -72 50 -72 46 0 67 21 61 63 -4 31 -85 37
-111 9z" />
    <path d="M15040 918 c1 -7 17 -26 38 -41 41 -31 65 -30 114 4 52 38 38 49 -62
49 -66 0 -90 -3 -90 -12z" />
  </g>
  <g transform="translate(0.000000,580.000000) scale(0.100000,-0.100000)" fill="#50593c" stroke="none">
    <path d="M11165 4515 c-781 -38 -920 -48 -962 -70 -88 -45 -141 -154 -129
-263 3 -32 10 -156 16 -277 12 -247 17 -273 60 -332 34 -46 119 -93 168 -93
30 0 30 0 37 -142 12 -246 23 -244 263 38 115 135 67 124 701 154 224 10 277
27 332 103 48 66 51 93 39 339 -21 421 -28 451 -121 513 -30 20 -136 52 -143
44 0 -1 -118 -7 -261 -14z m327 -94 c78 -30 89 -79 103 -487 11 -296 10 -298
-310 -314 -665 -33 -595 -25 -640 -73 -41 -43 -137 -153 -174 -197 -20 -25
-20 -25 -21 26 -1 137 -29 194 -97 194 -118 0 -153 54 -164 255 -26 484 -27
477 38 523 41 29 58 31 408 47 540 25 750 36 760 40 14 6 65 -1 97 -14z" />
    <path d="M10823 4320 c-121 -28 -203 -240 -94 -240 36 0 47 14 54 68 9 74 66
114 131 92 87 -28 89 -94 6 -185 -60 -67 -79 -111 -66 -153 15 -45 96 -33 96
14 0 36 16 62 72 120 140 144 7 333 -199 284z" />
    <path d="M10883 3810 c-27 -11 -39 -50 -23 -79 22 -41 111 -17 110 30 -1 38
-48 64 -87 49z" />
    <path d="M9785 3196 c-160 -51 -256 -203 -225 -359 54 -284 240 -462 401 -385
149 72 283 366 237 522 -50 172 -243 276 -413 222z m218 -114 c125 -84 139
-209 44 -395 -81 -158 -163 -195 -254 -113 -114 102 -171 314 -115 423 59 114
219 156 325 85z" />
    <path d="M17320 2384 c0 -121 -54 -251 -133 -318 -23 -20 -45 -36 -49 -36 -14
0 -8 -28 6 -33 46 -18 196 165 196 238 0 9 5 13 10 10 6 -3 10 -14 10 -23 0
-49 94 -176 158 -214 27 -16 29 -16 45 2 13 16 14 20 3 20 -8 0 -36 20 -63 44
-82 74 -136 197 -134 308 1 55 -1 58 -24 58 -24 0 -25 -3 -25 -56z" />
    <path d="M17870 2395 c0 -45 0 -45 -51 -45 -40 0 -49 3 -42 13 25 31 25 67 -1
67 -19 0 -25 -7 -30 -32 -3 -18 -22 -60 -42 -92 -27 -46 -32 -61 -22 -67 21
-14 26 -11 50 31 23 39 24 40 81 40 57 0 57 0 57 -55 0 -55 0 -55 -75 -55 -68
0 -75 -2 -75 -20 0 -18 7 -20 75 -20 75 0 75 0 75 -60 0 -60 0 -60 -100 -60
-93 0 -100 -1 -100 -20 0 -19 7 -20 220 -20 213 0 220 1 220 20 0 19 -7 20
-100 20 -100 0 -100 0 -100 60 0 60 0 60 80 60 73 0 80 2 80 20 0 18 -7 20
-80 20 -80 0 -80 0 -80 55 0 55 0 55 91 55 81 0 90 2 87 18 -3 14 -17 17 -91
20 -87 3 -87 3 -87 47 0 38 -3 45 -20 45 -17 0 -20 -7 -20 -45z" />
    <path d="M12827 2423 c-13 -12 -7 -18 38 -43 44 -24 78 -19 61 8 -15 25 -85
49 -99 35z" />
    <path d="M13902 2417 c-8 -10 1 -19 38 -40 30 -17 51 -23 55 -17 4 6 57 10
131 10 124 0 124 0 124 -170 0 -170 0 -170 -54 -170 -49 0 -54 -2 -49 -20 4
-17 14 -20 55 -20 90 0 88 -5 88 200 0 173 1 180 20 180 13 0 20 7 20 20 0 19
-7 20 -159 20 -115 0 -160 -3 -163 -12 -3 -8 -16 -5 -42 10 -43 26 -50 27 -64
9z" />
    <path d="M14985 2419 c-8 -12 -11 -10 42 -43 39 -23 43 -24 52 -9 16 30 -76
81 -94 52z" />
    <path d="M15120 2405 c0 -12 18 -15 105 -15 87 0 105 -3 105 -15 0 -12 -17
-15 -95 -15 -78 0 -95 -3 -95 -15 0 -12 17 -15 95 -15 88 0 95 -1 95 -20 0
-19 -7 -20 -105 -20 -87 0 -105 -3 -105 -15 0 -13 21 -15 125 -15 125 0 125 0
125 80 0 80 0 80 -125 80 -104 0 -125 -2 -125 -15z" />
    <path d="M15644 2366 c-9 -51 -9 -51 -66 -54 -55 -3 -58 -4 -58 -28 0 -25 1
-26 50 -19 42 6 50 4 50 -9 0 -22 -47 -144 -70 -184 -25 -42 -25 -52 -1 -52
26 0 54 48 90 155 36 106 57 124 112 95 24 -13 26 -83 4 -157 -17 -57 -30 -66
-74 -53 -29 8 -31 7 -31 -16 0 -24 2 -25 58 -22 74 4 95 38 100 168 5 103 -10
124 -84 125 -24 0 -44 2 -44 5 1 3 4 24 9 47 7 38 6 42 -14 46 -20 3 -24 -2
-31 -47z" />
    <path d="M16730 2393 c0 -47 -14 -58 -70 -56 -47 1 -50 -1 -50 -23 0 -22 4
-24 50 -24 28 0 50 -1 50 -3 0 -15 -52 -173 -70 -211 -24 -53 -24 -51 7 -60
17 -5 23 -2 28 16 3 13 10 32 15 43 20 45 50 143 56 181 7 44 24 54 90 54 19
0 24 5 24 26 0 19 -4 24 -17 20 -75 -22 -75 -22 -71 20 3 34 0 39 -19 42 -19
3 -23 -1 -23 -25z" />
    <path d="M18355 2375 c-7 -49 -15 -51 -97 -28 -13 3 -18 -1 -18 -16 0 -14 9
-21 33 -26 66 -13 67 -14 67 -56 0 -43 -5 -45 -72 -30 -33 8 -38 7 -38 -9 0
-18 44 -40 81 -40 16 0 19 -8 19 -49 0 -90 68 -132 174 -109 69 15 106 53 106
108 0 68 -38 124 -77 114 -22 -6 -22 -6 3 -32 13 -15 24 -31 24 -37 0 -5 3
-20 6 -32 11 -39 -44 -83 -103 -83 -69 0 -93 20 -93 76 0 44 0 44 54 44 45 0
54 3 59 20 5 18 0 20 -52 20 -57 0 -57 0 -53 40 4 39 4 39 56 42 43 3 51 6 54
24 3 20 -1 21 -49 16 -52 -5 -52 -5 -45 33 5 27 4 40 -6 46 -22 14 -25 11 -33
-36z" />
    <path d="M18760 2400 c0 -18 7 -20 65 -20 51 0 65 -3 65 -15 0 -11 -12 -15
-50 -15 -50 0 -50 0 -50 -60 0 -60 0 -60 50 -60 43 0 50 -3 50 -20 0 -18 -7
-20 -70 -20 -63 0 -70 -2 -70 -20 0 -19 7 -20 96 -20 52 0 93 -4 90 -8 -11
-18 59 -90 76 -78 15 11 13 16 -18 49 -35 37 -35 37 80 37 109 0 116 1 116 20
0 18 -7 20 -75 20 -68 0 -75 2 -75 20 0 18 7 20 55 20 55 0 55 0 55 60 0 60 0
60 -55 60 -42 0 -55 3 -55 15 0 12 14 15 70 15 63 0 70 2 70 20 0 19 -7 20
-210 20 -203 0 -210 -1 -210 -20z m240 -35 c0 -10 -11 -15 -35 -15 -24 0 -35
5 -35 15 0 10 11 15 35 15 24 0 35 -5 35 -15z m-110 -80 c0 -21 -5 -25 -30
-25 -25 0 -30 4 -30 25 0 21 5 25 30 25 25 0 30 -4 30 -25z m110 0 c0 -22 -4
-25 -35 -25 -31 0 -35 3 -35 25 0 22 4 25 35 25 31 0 35 -3 35 -25z m110 0 c0
-22 -4 -25 -35 -25 -31 0 -35 3 -35 25 0 22 4 25 35 25 31 0 35 -3 35 -25z
m-110 -75 c0 -16 -7 -20 -35 -20 -28 0 -35 4 -35 20 0 16 7 20 35 20 28 0 35
-4 35 -20z" />
    <path d="M19479 2336 c-53 -45 -102 -92 -108 -104 -13 -27 -6 -35 136 -161 40
-35 75 -66 78 -69 6 -6 35 17 35 28 0 5 -45 46 -100 92 -55 46 -99 90 -99 98
0 8 43 49 95 90 100 80 104 84 77 98 -14 7 -38 -8 -114 -72z" />
    <path d="M20516 2380 c-6 -40 -6 -40 -67 -40 -52 0 -60 -2 -57 -17 2 -14 15
-19 51 -21 26 -2 47 -7 47 -11 0 -11 -48 -99 -72 -134 -21 -29 -18 -57 5 -57
14 0 88 122 108 178 9 26 16 32 39 32 41 0 60 10 60 31 0 22 -3 22 -47 10 -23
-7 -31 -6 -28 2 17 57 15 67 -9 67 -20 0 -24 -6 -30 -40z" />
    <path d="M12958 2258 c-3 -142 -6 -157 -30 -205 -25 -49 -24 -63 8 -63 22 0
64 145 64 223 0 57 0 57 110 57 110 0 110 0 110 70 0 70 0 70 -129 70 -129 0
-129 0 -133 -152z m222 87 c0 -35 0 -35 -90 -35 -90 0 -90 0 -90 35 0 35 0 35
90 35 90 0 90 0 90 -35z" />
    <path d="M19881 2359 c-16 -73 -24 -246 -14 -299 11 -56 53 -74 53 -22 0 15 7
50 16 76 21 60 4 89 -20 35 -14 -34 -14 -34 -15 11 0 45 13 170 25 223 5 22 2
27 -14 27 -16 0 -23 -10 -31 -51z" />
    <path d="M20130 2365 c0 -45 0 -45 -65 -45 -57 0 -65 -2 -65 -19 0 -20 66 -35
108 -24 21 5 22 2 22 -55 0 -59 0 -59 -45 -64 -69 -8 -97 -31 -93 -76 6 -78
141 -98 175 -26 19 40 22 40 51 14 25 -24 38 -25 45 -5 4 8 -7 25 -26 40 -18
15 -40 33 -49 41 -14 10 -18 29 -18 73 0 58 0 58 40 65 30 5 40 11 40 25 0 16
-6 18 -40 14 -40 -6 -40 -6 -40 41 0 39 -3 46 -20 46 -17 0 -20 -7 -20 -45z
m-2 -271 c-4 -34 -27 -49 -62 -40 -61 15 -46 66 19 66 44 0 46 -1 43 -26z" />
    <path d="M14472 2322 c-13 -82 -15 -240 -3 -282 8 -29 41 -41 41 -14 0 10 9
44 21 77 17 49 19 61 8 68 -10 6 -17 1 -26 -19 -23 -52 -12 141 13 226 5 18 3
22 -18 22 -22 0 -24 -6 -36 -78z" />
    <path d="M13498 2367 c-132 -45 -189 -223 -94 -299 68 -55 145 34 174 201 14
80 14 79 66 54 117 -57 96 -215 -36 -259 -54 -18 -59 -37 -9 -42 82 -8 161 80
161 181 0 128 -129 209 -262 164z m48 -44 c-2 -10 -10 -43 -17 -74 -18 -86
-50 -144 -79 -144 -53 0 -65 102 -19 164 38 52 126 92 115 54z" />
    <path d="M20954 2263 c10 -164 44 -243 106 -243 51 0 113 105 80 135 -17 15
-19 14 -29 -18 -47 -140 -116 -41 -116 166 0 64 -1 67 -24 67 -24 0 -24 0 -17
-107z" />
    <path d="M14620 2341 c0 -23 26 -31 107 -31 74 0 93 6 93 31 0 17 -9 19 -100
19 -91 0 -100 -2 -100 -19z" />
    <path d="M15841 2351 c-11 -7 -10 -15 8 -44 12 -20 32 -61 45 -91 20 -50 24
-55 39 -43 20 14 13 42 -36 135 -28 54 -33 57 -56 43z" />
    <path d="M21228 2353 c-16 -4 -14 -10 12 -56 15 -29 34 -79 40 -113 16 -79 24
-94 44 -74 25 26 -42 255 -73 249 -3 -1 -14 -3 -23 -6z" />
    <path d="M20677 2336 c-7 -18 88 -80 109 -72 23 9 16 25 -23 49 -54 34 -79 41
-86 23z" />
    <path d="M9730 2299 c-415 -90 -690 -396 -694 -770 -2 -144 -98 -129 829 -129
931 0 851 -14 842 145 -21 346 -267 642 -614 736 -89 24 -290 34 -363 18z
m266 -94 c340 -58 583 -317 618 -657 6 -58 6 -58 -744 -58 -412 0 -750 3 -750
6 0 111 55 278 130 394 33 51 155 180 171 180 4 0 14 7 22 15 9 8 46 30 84 48
164 81 297 101 469 72z" />
    <path d="M14040 2200 c0 -91 3 -110 15 -110 8 0 15 7 15 15 0 12 13 15 60 15
60 0 60 0 60 95 0 95 0 95 -75 95 -75 0 -75 0 -75 -110z m120 15 c0 -55 0 -55
-45 -55 -45 0 -45 0 -45 55 0 55 0 55 45 55 45 0 45 0 45 -55z" />
    <path d="M14966 2294 c-4 -9 -5 -18 -4 -18 2 -1 21 -14 44 -28 37 -24 41 -25
51 -9 9 15 4 22 -33 44 -53 32 -50 31 -58 11z" />
    <path d="M12802 2288 c-13 -13 72 -73 89 -63 20 13 7 36 -31 55 -46 24 -43 23
-58 8z" />
    <path d="M13881 2286 c-13 -15 72 -72 90 -60 24 15 1 37 -72 71 -4 1 -12 -3
-18 -11z" />
    <path d="M16240 2265 c-109 -26 -140 -38 -140 -52 0 -25 28 -25 105 1 128 43
184 28 185 -50 0 -57 -78 -104 -171 -104 -14 0 -19 -5 -17 -17 11 -56 189 2
222 71 54 114 -34 187 -184 151z" />
    <path d="M16820 2251 c0 -18 9 -20 90 -23 88 -3 90 -2 90 20 0 21 -3 22 -90
22 -82 0 -90 -2 -90 -19z" />
    <path d="M20647 2210 c6 -60 6 -60 -40 -60 -60 0 -101 -32 -99 -79 2 -85 158
-94 179 -11 8 31 8 31 43 5 32 -24 36 -24 47 -9 13 18 -24 55 -68 69 -14 5
-19 22 -25 75 -5 58 -10 70 -24 70 -16 0 -17 -7 -13 -60z m-11 -100 c22 0 17
-48 -7 -60 -39 -22 -103 10 -83 42 9 14 47 28 62 22 8 -2 20 -4 28 -4z" />
    <path d="M13030 2136 c0 -142 3 -146 103 -146 40 0 78 4 86 9 21 13 32 89 14
95 -22 9 -21 9 -25 -26 -3 -33 -3 -33 -70 -36 -68 -3 -68 -3 -68 42 0 46 0 46
75 82 77 37 84 44 62 62 -9 8 -27 2 -67 -23 -70 -44 -70 -44 -70 10 0 38 -3
45 -20 45 -19 0 -20 -7 -20 -114z" />
    <path d="M15090 2200 c0 -29 4 -40 15 -40 8 0 15 9 15 20 0 19 7 20 125 20
118 0 125 -1 125 -20 0 -13 7 -20 20 -20 17 0 20 7 20 40 0 40 0 40 -160 40
-160 0 -160 0 -160 -40z" />
    <path d="M12851 2098 c-34 -64 -40 -82 -30 -89 22 -14 24 -13 67 71 38 72 40
80 24 89 -14 8 -24 -3 -61 -71z" />
    <path d="M15034 2164 c-4 -10 -20 -47 -35 -81 -23 -53 -25 -64 -13 -74 30 -25
99 131 71 159 -15 14 -17 14 -23 -4z" />
    <path d="M15130 2163 c1 -10 18 -36 40 -58 49 -50 45 -55 -64 -80 -27 -6 -28
-8 -13 -22 14 -14 22 -14 86 7 66 22 73 23 104 8 53 -25 92 -31 106 -14 10 12
3 17 -44 31 -65 21 -64 16 -20 68 56 65 48 72 -83 75 -102 2 -112 1 -112 -15z
m152 -55 c-32 -33 -32 -33 -64 0 -33 32 -33 32 32 32 65 0 65 0 32 -32z" />
    <path d="M13932 2098 c-41 -70 -47 -98 -19 -98 13 0 84 117 89 148 8 44 -30
17 -70 -50z" />
    <path d="M14600 2120 c0 -67 33 -90 130 -90 85 0 110 8 110 32 0 19 -5 20 -67
14 -96 -9 -127 1 -131 45 -3 31 -15 48 -34 49 -5 0 -8 -23 -8 -50z" />
    <path d="M16797 2143 c-14 -13 -6 -72 12 -94 31 -38 201 -43 201 -6 0 24 -1
24 -68 19 -90 -6 -116 7 -109 54 6 33 -15 49 -36 27z" />
    <path d="M18778 2082 c-12 -26 -24 -50 -25 -53 -2 -4 5 -9 15 -11 32 -9 77 94
47 106 -10 3 -21 -9 -37 -42z" />
    <path d="M19105 2120 c-10 -16 44 -100 61 -93 20 7 18 17 -11 63 -25 40 -39
48 -50 30z" />
    <path d="M18850 2072 c0 -68 8 -72 126 -72 110 0 129 8 122 52 -5 33 -38 37
-38 4 0 -26 0 -26 -85 -26 -85 0 -85 0 -85 45 0 38 -3 45 -20 45 -17 0 -20 -7
-20 -48z" />
    <path d="M15098 1232 c-21 -4 -21 -7 -8 -33 10 -18 7 -19 -85 -19 -95 0 -95 0
-95 -94 0 -95 -24 -251 -42 -273 -6 -8 -3 -15 11 -23 19 -9 23 -7 32 17 21 50
38 166 38 256 1 87 1 87 181 87 153 0 180 2 180 15 0 12 -16 15 -83 15 -81 0
-84 1 -98 28 -9 18 -20 27 -31 24z" />
    <path d="M17279 1178 c-13 -29 -34 -68 -47 -86 -31 -46 -23 -66 23 -58 45 9
44 -2 -3 -50 -42 -43 -46 -77 -9 -69 12 2 48 9 80 15 48 10 57 15 57 33 1 20
2 20 11 5 10 -18 59 0 119 43 12 9 26 5 60 -18 60 -40 76 -45 91 -27 6 8 10
16 8 17 -2 2 -26 16 -54 32 -27 15 -51 29 -53 31 -2 1 13 26 32 54 51 74 49
80 -29 80 -69 0 -71 1 -55 31 9 16 7 19 -12 19 -16 0 -29 -10 -41 -32 -38 -70
-65 -94 -87 -80 -18 11 -22 9 -31 -12 -11 -23 -35 -36 -68 -36 -10 0 -11 3 -2
13 23 29 71 128 66 137 -14 22 -33 7 -56 -42z m301 -36 c0 -5 -13 -21 -29 -36
-28 -27 -28 -27 -50 0 -30 39 -27 44 29 44 28 0 50 -4 50 -8z m-102 -61 c16
-22 18 -31 9 -39 -35 -27 -129 -71 -167 -77 -43 -7 -43 -7 -8 36 19 24 41 54
47 67 10 19 15 21 27 11 12 -10 19 -8 37 9 27 28 29 28 55 -7z" />
    <path d="M15613 1183 c2 -28 2 -28 -70 -25 -68 3 -73 1 -73 -18 0 -21 28 -26
130 -21 40 2 46 -1 57 -25 17 -38 14 -39 -93 -39 -82 0 -94 -2 -94 -17 0 -24
53 -32 145 -23 74 7 75 7 85 -20 13 -35 14 -35 -14 -35 -59 0 -44 -30 19 -40
63 -10 74 6 46 62 -21 43 -21 43 16 54 27 8 39 17 41 33 4 23 -13 23 -74 0
-17 -6 -24 -2 -33 17 -17 37 -14 41 29 48 32 5 40 10 40 27 0 18 -4 20 -25 15
-14 -3 -35 -9 -48 -12 -18 -4 -26 0 -35 20 -16 37 -51 35 -49 -1z" />
    <path d="M16042 1133 c-21 -138 -17 -203 13 -203 23 0 25 4 25 44 0 73 46 149
103 169 47 17 87 -43 87 -130 0 -94 -38 -140 -137 -165 -47 -12 -50 -15 -38
-32 40 -54 190 42 216 137 44 164 -77 287 -189 192 -46 -40 -52 -34 -33 33 9
29 8 32 -13 32 -20 0 -24 -7 -34 -77z" />
    <path d="M17870 1170 c0 -39 0 -39 -50 -46 -41 -5 -50 -10 -50 -27 0 -18 5
-19 50 -14 45 5 50 4 50 -14 0 -17 -24 -64 -40 -79 -36 -32 -68 -95 -58 -113
10 -20 11 -20 25 -1 7 10 19 26 27 35 7 9 18 25 24 35 9 15 11 1 12 -63 0 -81
1 -83 25 -83 24 0 24 0 18 84 -8 111 -2 129 50 159 86 51 160 42 187 -22 25
-62 -22 -131 -104 -152 -49 -12 -55 -19 -31 -39 33 -27 146 36 171 96 28 66 6
146 -47 174 -36 20 -149 9 -187 -18 -30 -22 -32 -22 -32 -5 0 11 5 24 11 30 6
6 8 17 3 24 -4 8 -7 28 -5 46 2 29 0 33 -23 33 -24 0 -26 -4 -26 -40z" />
    <path d="M18986 1170 c-6 -40 -6 -40 -67 -40 -52 0 -60 -2 -57 -17 2 -14 15
-19 51 -21 26 -2 47 -5 47 -8 0 -11 -54 -112 -76 -141 -24 -32 -24 -32 -3 -43
11 -7 22 -10 23 -8 20 27 69 117 86 156 20 47 24 50 66 57 36 5 44 10 44 27 0
18 -4 20 -39 14 -40 -6 -40 -6 -30 26 5 18 9 34 9 35 0 2 -11 3 -24 3 -20 0
-24 -6 -30 -40z" />
    <path d="M19515 1189 c-4 -11 -5 -22 -3 -23 11 -9 178 -37 187 -32 23 15 10
35 -26 41 -35 6 -113 22 -140 30 -7 2 -15 -5 -18 -16z" />
    <path d="M18468 1183 c-69 -3 -78 -6 -78 -23 0 -18 6 -19 85 -13 47 3 85 3 85
0 0 -3 -52 -49 -116 -103 -104 -88 -114 -99 -100 -113 14 -14 19 -12 48 16 99
94 258 84 258 -16 0 -59 -34 -86 -62 -48 -57 79 -176 65 -166 -20 10 -85 197
-81 255 6 59 87 -28 198 -139 177 -41 -8 -34 4 37 59 100 78 87 87 -107 78z
m58 -291 c6 -4 16 -17 23 -29 11 -22 10 -23 -27 -23 -42 0 -68 20 -58 45 6 16
43 20 62 7z" />
    <path d="M16678 1162 c-166 -15 -168 -16 -168 -39 0 -21 4 -23 33 -19 17 3 55
8 82 11 28 3 64 8 80 11 30 6 30 6 4 -22 -110 -119 -54 -288 94 -289 69 0 80
29 16 39 -184 29 -154 276 34 276 43 0 47 2 47 25 0 29 19 29 -222 7z" />
    <path d="M15030 1120 c0 -16 -7 -20 -35 -20 -28 0 -35 -4 -35 -20 0 -16 7 -20
35 -20 34 0 35 -1 35 -40 0 -40 0 -40 100 -40 100 0 100 0 100 40 0 40 0 40
40 40 33 0 40 3 40 20 0 17 -7 20 -40 20 -33 0 -40 3 -40 20 0 13 -7 20 -20
20 -13 0 -20 -7 -20 -20 0 -18 -7 -20 -60 -20 -53 0 -60 2 -60 20 0 13 -7 20
-20 20 -13 0 -20 -7 -20 -20z m160 -85 c0 -24 -3 -25 -60 -25 -57 0 -60 1 -60
25 0 24 3 25 60 25 57 0 60 -1 60 -25z" />
    <path d="M19144 1128 c-4 -7 0 -16 10 -22 10 -6 34 -21 54 -34 35 -23 62 -23
62 0 0 13 -88 68 -108 68 -6 0 -14 -5 -18 -12z" />
    <path d="M19466 1098 c-3 -13 -7 -50 -10 -84 -3 -33 -8 -68 -11 -76 -12 -31
29 -25 63 9 97 95 278 48 207 -55 -21 -29 -115 -56 -170 -48 -39 5 -42 3 -38
-14 14 -52 185 -30 239 31 101 114 -70 233 -213 149 -43 -25 -44 -25 -33 25
15 64 13 85 -10 85 -12 0 -21 -8 -24 -22z" />
    <path d="M16865 1090 c-8 -13 25 -70 40 -70 23 0 23 13 2 46 -23 35 -32 40
-42 24z" />
    <path d="M16813 1072 c-8 -5 -5 -17 11 -44 15 -26 26 -34 35 -28 11 6 -19 81
-32 80 -1 0 -7 -4 -14 -8z" />
    <path d="M19110 1000 c0 -60 0 -60 -42 -60 -112 -1 -129 -122 -20 -137 57 -8
102 12 109 48 7 35 8 35 49 4 32 -25 33 -25 44 -6 10 20 -44 71 -77 71 -7 0
-14 26 -19 70 -6 59 -9 70 -25 70 -16 0 -19 -8 -19 -60z m6 -104 c11 -28 -15
-56 -50 -56 -46 0 -65 24 -41 50 21 24 83 27 91 6z" />
    <path d="M14330 1010 c0 -19 7 -20 225 -20 218 0 225 1 225 20 0 19 -7 20
-225 20 -218 0 -225 -1 -225 -20z" />
    <path d="M17481 966 c-10 -11 -1 -20 44 -44 30 -17 55 -29 55 -27 0 2 3 10 6
19 9 22 -89 71 -105 52z" />
    <path d="M15484 935 c-11 -43 0 -87 27 -107 50 -38 229 -36 229 2 0 16 -7 18
-78 13 -108 -8 -147 11 -139 67 6 46 -28 68 -39 25z" />
    <path d="M14960 935 c0 -8 9 -15 20 -15 11 0 38 -17 60 -38 39 -39 39 -39 -11
-50 -28 -7 -59 -12 -69 -12 -13 0 -17 -5 -14 -15 8 -20 53 -19 126 1 52 15 62
15 105 1 91 -28 121 -30 133 -7 10 18 8 20 -21 20 -17 0 -49 5 -70 11 -38 12
-38 12 6 51 73 65 68 68 -110 68 -131 0 -155 -2 -155 -15z m226 -40 c-44 -36
-62 -36 -102 -4 -37 29 -37 29 47 29 84 -1 84 -1 55 -25z" />
    <path d="M17426 875 c-3 -10 1 -18 12 -22 9 -3 52 -20 94 -38 71 -30 98 -31
98 -5 0 8 -78 42 -144 64 -60 19 -53 19 -60 1z" />
    <path d="M17291 864 c-40 -7 -76 -15 -78 -18 -10 -10 7 -38 20 -33 7 2 45 11
85 18 57 11 72 17 72 31 0 20 0 20 -99 2z" />
  </g>
  <g transform="translate(0.000000,580.000000) scale(0.100000,-0.100000)" fill="#38b6ff" stroke="none">
    <path d="M19456 5051 c-25 -26 -32 -28 -59 -20 -123 35 -370 -2 -522 -78 -271
-137 -469 -445 -424 -661 31 -153 111 -218 269 -216 197 1 323 104 441 361
132 287 169 359 243 470 47 71 52 73 105 37 132 -87 134 -285 5 -374 -32 -21
-32 -21 -73 0 -88 45 -175 35 -169 -18 4 -38 48 -56 136 -59 83 -2 99 -13 141
-99 62 -123 16 -247 -114 -308 -112 -54 -237 -15 -288 90 -23 48 -65 65 -52
22 35 -119 163 -206 288 -196 252 21 354 299 176 482 -28 29 -28 29 -1 43 172
87 152 364 -33 458 -22 11 -42 21 -44 22 -2 1 4 14 13 28 31 48 4 59 -38 16z
m-61 -60 c3 -6 -1 -13 -8 -18 -7 -4 -26 -26 -42 -48 -17 -22 -32 -42 -36 -45
-18 -16 -106 -171 -149 -265 -125 -268 -162 -336 -219 -398 -146 -159 -377
-143 -417 29 -55 236 178 574 477 695 127 51 374 82 394 50z m15 -447 c24 -14
22 -15 -34 -10 -32 3 -64 10 -69 15 -17 17 74 13 103 -5z" />
    <path d="M14564 5041 c-83 -60 -200 -216 -311 -415 -161 -289 -164 -498 -9
-523 153 -25 339 225 306 410 -19 100 -125 102 -125 2 0 -44 39 -95 73 -95 51
0 -75 -209 -155 -255 -91 -54 -160 -16 -149 83 10 94 71 235 110 258 163 94
378 360 393 484 10 82 -56 108 -133 51z m100 -20 c24 -39 -81 -207 -209 -336
-147 -147 -167 -156 -105 -47 22 39 40 74 40 76 0 11 116 184 154 230 53 64
107 99 120 77z m-160 -479 c13 -22 17 -82 5 -82 -33 0 -64 61 -42 83 9 9 31 9
37 -1z" />
    <path d="M20170 5050 c-153 -83 -352 -405 -397 -644 -51 -269 102 -385 273
-208 45 46 46 45 58 -9 30 -140 281 -104 362 52 12 24 21 29 50 29 19 0 44 5
55 10 18 10 19 7 19 -51 0 -128 100 -169 252 -104 16 6 16 4 1 -34 -14 -35
-28 -48 -97 -87 -200 -115 -305 -214 -341 -319 -32 -96 0 -155 84 -155 124 0
261 166 392 478 10 23 34 44 79 72 143 87 310 253 274 273 -11 7 -20 2 -32
-15 -26 -39 -145 -152 -187 -179 -22 -14 -52 -34 -67 -43 -33 -22 -28 -8 108
264 53 107 79 169 72 175 -6 7 -16 3 -27 -12 -18 -22 -18 -22 -39 2 -39 45
-126 54 -207 23 -71 -28 -205 -131 -205 -158 0 -19 -98 -110 -118 -110 -26 0
-27 6 -6 56 24 55 24 172 1 207 -65 99 -175 -11 -147 -148 12 -60 43 -125 61
-125 33 0 -76 -114 -134 -141 -187 -84 -173 184 19 361 36 33 43 44 34 56 -26
31 -135 -63 -227 -194 -182 -261 -298 -296 -302 -88 -1 62 -4 58 169 236 120
123 270 370 286 470 12 76 -38 102 -116 60z m80 -49 c0 -33 -37 -122 -77 -184
-34 -51 -154 -214 -180 -242 -10 -11 -45 -50 -77 -88 -32 -37 -61 -65 -63 -63
-9 8 38 139 80 226 36 74 63 120 144 240 32 48 133 140 153 140 15 0 20 -7 20
-29z m246 -458 c27 -36 2 -212 -30 -217 -41 -6 -68 148 -37 207 17 31 48 35
67 10z m538 -28 c26 -24 26 -24 -17 -92 -24 -37 -62 -102 -85 -143 -96 -175
-299 -209 -278 -47 25 184 280 374 380 282z m-294 -647 c-53 -105 -89 -169
-100 -178 -3 -3 -16 -20 -29 -38 -50 -72 -124 -108 -155 -76 -63 62 92 263
294 381 48 28 48 27 -10 -89z" />
    <path d="M13733 5049 c-321 -41 -588 -371 -587 -724 1 -499 639 -462 898 52
176 350 14 633 -297 519 -174 -64 -291 -223 -290 -396 0 -85 4 -99 47 -163 34
-51 147 -101 146 -64 -1 6 -15 21 -33 32 -129 80 -103 326 49 479 169 169 394
115 411 -98 5 -62 -15 -182 -37 -225 -5 -9 -18 -36 -30 -61 -184 -376 -637
-525 -771 -253 -36 74 -32 217 9 337 108 308 363 536 602 536 64 0 150 -33
168 -65 5 -10 15 -13 25 -9 45 17 -47 86 -138 103 -65 12 -82 12 -172 0z" />
    <path d="M17651 5038 c-47 -119 -81 -211 -81 -219 0 -34 39 9 103 116 76 125
76 125 31 125 -37 0 -46 -4 -53 -22z" />
    <path d="M15875 4946 c-60 -69 -148 -196 -200 -286 -34 -60 -43 -70 -60 -63
-11 4 -49 7 -85 7 -123 1 -221 -71 -310 -230 -70 -125 -143 -204 -188 -204
-40 0 -47 15 -32 71 11 43 123 275 141 294 13 13 11 25 -5 25 -20 0 -92 -87
-159 -191 -74 -116 -213 -254 -171 -170 36 72 35 166 -3 304 -15 54 -15 61 1
94 28 60 2 74 -37 20 -71 -98 -156 -252 -145 -264 8 -10 25 10 70 83 33 52 62
93 64 91 15 -15 4 -236 -14 -284 -40 -105 -147 -143 -174 -61 -2 6 -10 8 -16
4 -16 -10 -5 -46 21 -68 67 -59 212 -21 318 83 37 36 39 36 39 -4 0 -48 25
-67 89 -67 50 0 54 2 117 64 66 64 84 66 84 6 0 -18 72 -69 105 -76 47 -8 109
15 164 63 42 35 60 35 61 -2 0 -6 14 -19 31 -29 43 -25 100 -16 150 24 26 20
39 26 39 17 0 -37 40 -67 89 -67 49 0 74 12 127 62 31 29 31 29 43 -11 32
-109 174 -111 282 -5 46 45 46 45 52 14 10 -46 29 -60 82 -60 86 0 130 41 254
237 88 139 149 207 177 196 21 -8 13 -47 -27 -133 -26 -57 -103 -186 -119
-200 -3 -3 -23 -28 -43 -57 -36 -50 -37 -52 -18 -62 35 -19 45 -12 126 97 44
59 82 109 85 112 3 3 30 34 60 70 97 115 157 158 192 139 31 -16 22 -69 -22
-140 -105 -168 -127 -235 -90 -282 59 -74 185 0 297 176 39 62 41 77 7 77 -2
0 -20 -25 -39 -56 -131 -204 -291 -258 -167 -56 87 142 106 243 57 296 -41 44
-132 28 -201 -35 -29 -27 -34 -24 -34 16 0 44 -29 75 -70 75 -43 0 -100 -56
-167 -164 -120 -194 -185 -266 -241 -266 -35 0 -35 0 -28 46 5 41 66 176 131
294 29 53 17 65 -25 25 -28 -27 -28 -27 -39 -6 -45 84 -225 58 -337 -48 -52
-49 -72 -74 -129 -162 -67 -104 -116 -149 -160 -149 -44 0 -46 21 -10 115 23
63 108 230 126 249 14 16 11 26 -8 25 -22 0 -76 -68 -176 -221 -223 -340 -279
-94 -67 297 43 79 148 253 174 290 35 47 37 52 22 64 -11 10 -23 1 -61 -43z
m-281 -389 c18 -13 18 -16 -8 -80 -14 -37 -34 -98 -42 -137 -33 -144 -214
-239 -255 -133 -59 152 189 435 305 350z m863 -39 c35 -32 29 -50 -51 -172
-120 -182 -227 -255 -286 -196 -116 116 217 480 337 368z" />
    <path d="M15195 4706 c-21 -31 -16 -80 7 -84 27 -5 70 44 66 76 -4 38 -50 44
-73 8z" />
    <path d="M16047 4708 c-38 -60 -28 -99 21 -79 56 23 71 93 20 99 -19 2 -31 -3
-41 -20z" />
    <path d="M17789 4583 c-137 -216 -140 -223 -122 -230 9 -4 18 -2 20 3 2 5 27
45 55 89 52 80 52 80 61 5 25 -214 -82 -382 -180 -284 -35 35 -50 17 -21 -26
37 -55 141 -64 227 -20 88 45 233 212 206 237 -10 9 -19 3 -40 -30 -33 -49
-112 -135 -137 -148 -16 -9 -16 -7 0 28 21 49 20 198 -2 268 -20 62 -20 114
-1 139 12 16 12 22 2 28 -20 13 -24 10 -68 -59z" />
  </g>
  <g transform="translate(0.000000,580.000000) scale(0.100000,-0.100000)" fill="#43baff" stroke="none" />
  <g transform="translate(0.000000,580.000000) scale(0.100000,-0.100000)" fill="#f5f6f4" stroke="none">
    <path d="M17793 2343 c15 -2 39 -2 55 0 15 2 2 4 -28 4 -30 0 -43 -2 -27 -4z" />
    <path d="M17935 2344 c72 -8 153 -8 148 -1 -2 4 -43 6 -91 5 -48 0 -73 -3 -57
-4z" />
    <path d="M9040 1443 c0 -11 38 -49 43 -42 2 2 -7 15 -20 28 -13 13 -23 20 -23
14z" />
  </g>
  <g transform="translate(0.000000,580.000000) scale(0.100000,-0.100000)" fill="#f2fbff" stroke="none" />
  <g transform="translate(0.000000,580.000000) scale(0.100000,-0.100000)" fill="#5b6348" stroke="none">
    <path d="M18863 2413 c59 -2 155 -2 215 0 59 1 10 3 -108 3 -118 0 -167 -2
-107 -3z" />
    <path d="M13108 1993 c17 -2 47 -2 65 0 17 2 3 4 -33 4 -36 0 -50 -2 -32 -4z" />
  </g>
  <g transform="translate(0.000000,580.000000) scale(0.100000,-0.100000)" fill="#646b52" stroke="none">
    <path d="M11603 3785 c0 -22 2 -30 4 -17 2 12 2 30 0 40 -3 9 -5 -1 -4 -23z" />
    <path d="M13053 2273 c31 -2 83 -2 115 0 31 2 5 3 -58 3 -63 0 -89 -1 -57 -3z" />
    <path d="M16885 1155 c0 -14 3 -25 8 -25 4 0 7 11 7 25 0 14 -3 25 -7 25 -5 0
-8 -11 -8 -25z" />
  </g>
  <g transform="translate(0.000000,580.000000) scale(0.100000,-0.100000)" fill="#545c40" stroke="none">
    <path d="M13034 2150 c0 -58 1 -81 3 -52 2 28 2 76 0 105 -2 28 -3 5 -3 -53z" />
  </g>
  <g transform="translate(0.000000,580.000000) scale(0.100000,-0.100000)" fill="#9da292" stroke="none">
    <path d="M15213 2143 c20 -2 54 -2 75 0 20 2 3 4 -38 4 -41 0 -58 -2 -37 -4z" />
  </g>
  <g transform="translate(0.000000,580.000000) scale(0.100000,-0.100000)" fill="#9bdaff" stroke="none">
    <path d="M13453 4495 c0 -22 2 -30 4 -17 2 12 2 30 0 40 -3 9 -5 -1 -4 -23z" />
  </g>
  <g transform="translate(0.000000,580.000000) scale(0.100000,-0.100000)" fill="#a9ad9f" stroke="none">
    <path d="M18885 2365 c0 -14 3 -25 8 -25 4 0 7 11 7 25 0 14 -3 25 -7 25 -5 0
-8 -11 -8 -25z" />
    <path d="M13183 2345 c0 -22 2 -30 4 -17 2 12 2 30 0 40 -3 9 -5 -1 -4 -23z" />
    <path d="M18888 2290 c2 -16 6 -30 8 -30 2 0 4 14 4 30 0 17 -4 30 -8 30 -5 0
-7 -13 -4 -30z" />
    <path d="M16030 948 c0 -13 7 -18 28 -17 21 1 22 2 7 6 -11 3 -23 10 -27 17
-5 7 -8 5 -8 -6z" />
  </g>
  <g transform="translate(0.000000,580.000000) scale(0.100000,-0.100000)" fill="#cdedff" stroke="none">
    <path d="M13458 4003 c12 -2 30 -2 40 0 9 3 -1 5 -23 4 -22 0 -30 -2 -17 -4z" />
  </g>
  <g transform="translate(0.000000,580.000000) scale(0.100000,-0.100000)" fill="#b2b6a9" stroke="none">
    <path d="M18820 2312 c0 -4 18 -6 40 -4 22 2 40 6 40 8 0 2 -18 4 -40 4 -22 0
-40 -3 -40 -8z" />
    <path d="M18930 2316 c0 -2 18 -6 39 -8 22 -2 37 0 35 4 -5 8 -74 11 -74 4z" />
    <path d="M19058 2313 c12 -2 30 -2 40 0 9 3 -1 5 -23 4 -22 0 -30 -2 -17 -4z" />
    <path d="M15033 1020 c0 -25 2 -35 4 -22 2 12 2 32 0 45 -2 12 -4 2 -4 -23z" />
  </g>
  <g transform="translate(0.000000,580.000000) scale(0.100000,-0.100000)" fill="#69c8ff" stroke="none" />
  <g transform="translate(0.000000,580.000000) scale(0.100000,-0.100000)" fill="#ced1c9" stroke="none">
    <path d="M18965 2190 c-40 -7 -40 -7 -3 -9 20 0 40 4 43 9 3 6 5 9 3 9 -2 -1
-21 -5 -43 -9z" />
    <path d="M18788 2183 c23 -2 59 -2 80 0 20 2 1 4 -43 4 -44 0 -61 -2 -37 -4z" />
    <path d="M19060 2184 c60 -8 130 -8 130 -1 0 4 -35 6 -77 6 -43 -1 -67 -3 -53
-5z" />
  </g>
  <g transform="translate(0.000000,580.000000) scale(0.100000,-0.100000)" fill="#b4e3ff" stroke="none" />
  <g transform="translate(0.000000,580.000000) scale(0.100000,-0.100000)" fill="#dee0da" stroke="none">
    <path d="M18965 2350 c-40 -7 -40 -7 -3 -9 20 0 40 4 43 9 3 6 5 9 3 9 -2 -1
-21 -5 -43 -9z" />
    <path d="M18818 2343 c18 -2 45 -2 60 0 15 2 0 4 -33 4 -33 0 -45 -2 -27 -4z" />
    <path d="M19068 2343 c18 -2 45 -2 60 0 15 2 0 4 -33 4 -33 0 -45 -2 -27 -4z" />
    <path d="M15183 2263 c37 -2 96 -2 130 0 34 2 4 3 -68 3 -71 0 -99 -1 -62 -3z" />
    <path d="M17758 2163 c23 -2 59 -2 80 0 20 2 1 4 -43 4 -44 0 -61 -2 -37 -4z" />
    <path d="M17948 2163 c23 -2 61 -2 85 0 23 2 4 4 -43 4 -47 0 -66 -2 -42 -4z" />
  </g>
  <g transform="translate(0.000000,580.000000) scale(0.100000,-0.100000)" fill="#5dc3ff" stroke="none" />
  <g transform="translate(0.000000,580.000000) scale(0.100000,-0.100000)" fill="#767d66" stroke="none">
    <path d="M15140 2233 c134 -7 268 -7 263 0 -2 4 -75 6 -161 5 -86 -1 -132 -3
-102 -5z" />
  </g>
  <g transform="translate(0.000000,580.000000) scale(0.100000,-0.100000)" fill="#d9f1ff" stroke="none" />
  <g transform="translate(0.000000,580.000000) scale(0.100000,-0.100000)" fill="#f0f1ee" stroke="none" />
  <g transform="translate(0.000000,580.000000) scale(0.100000,-0.100000)" fill="#959a89" stroke="none">
    <path d="M13113 2023 c15 -2 39 -2 55 0 15 2 2 4 -28 4 -30 0 -43 -2 -27 -4z" />
  </g>
  <g transform="translate(0.000000,580.000000) scale(0.100000,-0.100000)" fill="#82d1ff" stroke="none" />
  <g transform="translate(0.000000,580.000000) scale(0.100000,-0.100000)" fill="#e6f6ff" stroke="none" />
  <g transform="translate(0.000000,580.000000) scale(0.100000,-0.100000)" fill="#697158" stroke="none">
    <path d="M15229 1097 c5 -5 26 -7 47 -5 39 3 39 3 -8 8 -26 3 -43 1 -39 -3z" />
    <path d="M14978 1093 c12 -2 30 -2 40 0 9 3 -1 5 -23 4 -22 0 -30 -2 -17 -4z" />
    <path d="M15098 1093 c17 -2 47 -2 65 0 17 2 3 4 -33 4 -36 0 -50 -2 -32 -4z" />
  </g>
  <g transform="translate(0.000000,580.000000) scale(0.100000,-0.100000)" fill="#e1e3de" stroke="none">
    <path d="M14254 2200 c0 -96 2 -136 3 -87 2 48 2 126 0 175 -1 48 -3 8 -3 -88z" />
  </g>
  <g transform="translate(0.000000,580.000000) scale(0.100000,-0.100000)" fill="#576044" stroke="none" />
  <g transform="translate(0.000000,580.000000) scale(0.100000,-0.100000)" fill="#8d9380" stroke="none" />
  <g transform="translate(0.000000,580.000000) scale(0.100000,-0.100000)" fill="#7f8671" stroke="none">
    <path d="M17778 2003 c61 -2 163 -2 225 0 61 1 11 3 -113 3 -124 0 -174 -2
-112 -3z" />
  </g>
  <g transform="translate(0.000000,580.000000) scale(0.100000,-0.100000)" fill="#bfc2b8" stroke="none">
    <path d="M15183 2203 c37 -2 96 -2 130 0 34 2 4 3 -68 3 -71 0 -99 -1 -62 -3z" />
  </g>
  <g transform="translate(0.000000,580.000000) scale(0.100000,-0.100000)" fill="#50beff" stroke="none" />
  <g transform="translate(0.000000,580.000000) scale(0.100000,-0.100000)" fill="#e8e9e5" stroke="none" />
  <g transform="translate(0.000000,580.000000) scale(0.100000,-0.100000)" fill="#d9dbd5" stroke="none">
    <path d="M18787 2383 c18 -2 50 -2 70 0 21 2 7 4 -32 4 -38 0 -55 -2 -38 -4z" />
    <path d="M18948 2383 c12 -2 30 -2 40 0 9 3 -1 5 -23 4 -22 0 -30 -2 -17 -4z" />
    <path d="M19073 2383 c20 -2 54 -2 75 0 20 2 3 4 -38 4 -41 0 -58 -2 -37 -4z" />
  </g>
  <g transform="translate(0.000000,580.000000) scale(0.100000,-0.100000)" fill="#babdb2" stroke="none" />
  <g transform="translate(0.000000,580.000000) scale(0.100000,-0.100000)" fill="#ececea" stroke="none">
    <path d="M15183 2173 c32 -2 81 -2 110 0 29 2 3 3 -58 3 -60 0 -84 -1 -52 -3z" />
  </g>
  <g transform="translate(0.000000,580.000000) scale(0.100000,-0.100000)" fill="#7a806b" stroke="none">
    <path d="M14078 2303 c23 -2 59 -2 80 0 20 2 1 4 -43 4 -44 0 -61 -2 -37 -4z" />
    <path d="M15223 1020 c0 -25 2 -35 4 -22 2 12 2 32 0 45 -2 12 -4 2 -4 -23z" />
  </g>
  <g transform="translate(0.000000,580.000000) scale(0.100000,-0.100000)" fill="#d5d7d0" stroke="none">
    <path d="M14098 2123 c17 -2 47 -2 65 0 17 2 3 4 -33 4 -36 0 -50 -2 -32 -4z" />
  </g>
  <g transform="translate(0.000000,580.000000) scale(0.100000,-0.100000)" fill="#a7dfff" stroke="none" />
  <g transform="translate(0.000000,580.000000) scale(0.100000,-0.100000)" fill="#6f765e" stroke="none" />
  <g transform="translate(0.000000,580.000000) scale(0.100000,-0.100000)" fill="#76ccff" stroke="none" />
  <g transform="translate(0.000000,580.000000) scale(0.100000,-0.100000)" fill="#8ed6ff" stroke="none" />
  <g transform="translate(0.000000,580.000000) scale(0.100000,-0.100000)" fill="#c7cac1" stroke="none" />
  <g transform="translate(0.000000,580.000000) scale(0.100000,-0.100000)" fill="#c3e9ff" stroke="none" />
  <g transform="translate(0.000000,580.000000) scale(0.100000,-0.100000)" fill="#898f7b" stroke="none">
    <path d="M15403 2195 c0 -22 2 -30 4 -17 2 12 2 30 0 40 -3 9 -5 -1 -4 -23z" />
  </g>
  <g transform="translate(0.000000,580.000000) scale(0.100000,-0.100000)" fill="#838a75" stroke="none" />
  <g transform="translate(0.000000,580.000000) scale(0.100000,-0.100000)" fill="#c4c7bd" stroke="none" />
  <g transform="translate(0.000000,580.000000) scale(0.100000,-0.100000)" fill="#6e755d" stroke="none" />
</svg>